<?xml version="1.0" encoding="UTF-8" standalone="no"?>
<svg
   viewBox="0 0 439.99998 220"
   version="1.1"
   id="svg452"
   sodipodi:docname="CartONG_logo_sans.svg"
   width="440"
   height="220"
   inkscape:version="1.2.2 (732a01da63, 2022-12-09)"
   xmlns:inkscape="http://www.inkscape.org/namespaces/inkscape"
   xmlns:sodipodi="http://sodipodi.sourceforge.net/DTD/sodipodi-0.dtd"
   xmlns="http://www.w3.org/2000/svg"
   xmlns:svg="http://www.w3.org/2000/svg">
  <defs
     id="defs456" />
  <sodipodi:namedview
     id="namedview454"
     pagecolor="#ffffff"
     bordercolor="#999999"
     borderopacity="1"
     inkscape:showpageshadow="0"
     inkscape:pageopacity="0"
     inkscape:pagecheckerboard="0"
     inkscape:deskcolor="#d1d1d1"
     showgrid="true"
     inkscape:zoom="1.172681"
     inkscape:cx="238.76912"
     inkscape:cy="82.290072"
     inkscape:window-width="1198"
     inkscape:window-height="1251"
     inkscape:window-x="3592"
     inkscape:window-y="0"
     inkscape:window-maximized="0"
     inkscape:current-layer="svg452">
    <inkscape:grid
       type="xygrid"
       id="grid1012" />
  </sodipodi:namedview>
  <g
     id="g1019"
     transform="matrix(1.3400957,0,0,1.3400957,18.016756,67.242907)">
    <path
       d="m 81.836,31.908 c 0,-11.591 6.302,-20.257 18.57,-20.257 9.9,0 16.317,6.527 16.936,14.855 h -7.877 c -0.394,-4.22 -3.207,-7.821 -9.06,-7.821 -7.26,0 -10.692,5.288 -10.692,13.223 0,7.935 3.432,13.167 10.692,13.167 5.626,0 8.384,-3.32 9.115,-7.484 h 7.822 c -0.844,8.103 -7.09,14.46 -16.937,14.46 -12.267,0 -18.569,-8.72 -18.569,-20.143 M 202.9,11.68 c -4.537,0 -8.713,1.53 -12.079,4.077 l 4.408,6.158 a 12.424,12.424 0 0 1 7.671,-2.647 c 6.899,0 11.498,5.592 11.498,12.491 0,6.899 -4.598,12.491 -11.498,12.491 a 12.42,12.42 0 0 1 -7.18,-2.28 l -4.615,6.003 c 3.316,2.42 7.385,3.866 11.795,3.866 11.072,0 20.08,-9.008 20.08,-20.08 0,-11.072 -9.008,-20.08 -20.08,-20.08 z"
       fill="#264a5c"
       id="path442" />
    <path
       fill="#264a5c"
       d="m 252.11756,37.9893 h -0.2171 L 237.92543,13.23412 H 227.9051 v 37.91853 h 8.39539 V 26.55948 h 0.21704 l 13.97503,24.59317 h 10.07542 V 13.23412 h -8.45042 z"
       id="path444" />
    <path
       d="m 134.887,45.497 c -4.744,0 -6.495,-3.897 -6.495,-8.528 0,-4.631 1.638,-8.528 6.495,-8.528 4.8,0 6.494,3.955 6.494,8.528 0,4.63 -1.75,8.528 -6.494,8.528 m 6.212,-20.048 h -0.225 c -1.47,-1.921 -3.898,-3.67 -8.077,-3.67 -7.68,0 -12.085,6.437 -12.085,15.19 0,8.698 4.405,15.193 12.085,15.193 4.18,0 6.722,-1.695 8.134,-3.672 h 0.224 l 0.941,3.163 h 6.571 V 22.287 h -6.777 l -0.79,3.162 z m 151.73,6.776 c 0,8.132 -2.863,11.894 -8.262,11.894 -6.528,0 -10.072,-4.278 -10.072,-12.213 0,-7.933 3.544,-12.264 10.072,-12.264 5.515,0 7.822,3.037 8.438,6.246 l 7.617,-2.841 c -1.79,-6.442 -7.242,-11.396 -16.055,-11.396 -12.66,0 -19.074,8.89 -19.074,20.255 0,11.198 5.317,20.146 17.977,20.146 8.695,0 10.198,-9.105 10.198,-9.105 h 0.422 l -0.957,8.206 h 8.313 V 32.225 Z M 176.093,51.68 V 28.862 h -6.86 c -4.52,0 -7.118,3.107 -7.118,8.415 v 14.404 h -7.173 V 22.309 h 6.383 l 0.564,6.248 h 0.226 c 1.3,-2.767 3.898,-6.7 7.627,-6.7 h 6.632 v -7.042 l 6.722,-1.58 h 0.564 v 9.074 h 5.712 l 0.819,6.44 h -6.53 v 22.932 h -7.568 z"
       fill="#264a5c"
       id="path446" />
    <path
       d="m 57.526,12.254 a 26.648,26.648 0 0 1 1.22,7.988 c 0,14.727 -15.339,43.57 -26.666,43.57 17.716,0 32.08,-14.361 32.08,-32.079 0,-7.336 -2.49,-14.075 -6.634,-19.48 z M 5.413,20.242 c 0,-2.784 0.43,-5.466 1.22,-7.988 C 2.49,17.658 0,24.397 0,31.734 0,49.45 14.362,63.812 32.08,63.812 21.14,63.812 5.413,34.968 5.413,20.241 Z"
       fill="#d1e5e3"
       id="path448" />
    <path
       d="m 21.807,36.784 c 0,-9.136 4.6,-16.542 10.273,-16.542 5.673,0 10.272,7.406 10.272,16.542 0,0.281 -0.016,0.591 -0.026,0.891 5.976,-3.517 9.995,-9.998 9.995,-17.433 C 52.321,9.062 43.26,0 32.08,0 20.9,0 11.838,9.063 11.838,20.242 c 0,7.435 4.02,13.916 9.995,17.433 -0.01,-0.3 -0.026,-0.61 -0.026,-0.891 z M 32.08,5.586 a 5.68,5.68 0 1 1 0,11.36 5.68,5.68 0 0 1 0,-11.36 z m -6.205,36.441 c 0.281,6.537 4.462,17.576 6.205,17.576 1.742,0 5.923,-11.04 6.204,-17.576 a 13.898,13.898 0 0 1 -6.204,1.467 c -2.232,0 -4.334,-0.537 -6.205,-1.467 z"
       fill="#264a5c"
       id="path450" />
  </g>
</svg>
