<?xml version="1.0" encoding="UTF-8"?><svg id="Calque_2" xmlns="http://www.w3.org/2000/svg" viewBox="0 0 515.17923 395.30659"><g id="Logo"><path d="m0,347.79435c0-27.19142,14.78451-47.5191,43.56009-47.5191,23.22967,0,38.28049,15.31165,39.73286,34.84863h-18.47995c-.92249-9.90027-7.52267-18.34817-21.25291-18.34817-17.03033,0-25.08288,12.40691-25.08288,31.01865s8.05255,30.88961,25.08288,30.88961c13.19761,0,19.66876-7.78624,21.38469-17.55747h18.34817c-1.9795,19.00984-16.63498,33.92339-39.73286,33.92339-28.77558,0-43.56009-20.45672-43.56009-47.25553" style="fill:#264a5c;"/><path d="m284.00049,300.34169c-10.64157,0-20.44026,3.58838-28.33632,9.56532l10.34231,14.44407c4.96935-3.87665,11.20162-6.20757,17.994-6.20757,16.18471,0,26.97178,13.118,26.97178,29.30271,0,16.18198-10.78707,29.30272-26.97178,29.30272-6.27622,0-12.07471-1.99049-16.84364-5.34823l-10.82825,14.08167c7.78074,5.67495,17.32684,9.06838,27.67189,9.06838,25.97517,0,47.10453-21.1321,47.10453-47.10453s-21.12936-47.10453-47.10453-47.10453" style="fill:#264a5c;"/><polygon points="399.45808 303.98854 399.45808 362.06134 398.95013 362.06134 366.16614 303.98854 342.65918 303.98854 342.65918 392.93997 362.35539 392.93997 362.35539 335.24879 362.8633 335.24879 395.64456 392.93997 419.28332 392.93997 419.28332 303.98854 399.45808 303.98854" style="fill:#264a5c;"/><path d="m139.02302,332.64332h-.52714c-3.44835-4.50811-9.14525-8.60989-18.94669-8.60989-18.0187,0-28.35277,15.10025-28.35277,35.63384,0,20.40455,10.33407,35.63933,28.35277,35.63933,9.80144,0,15.7674-3.97548,19.08122-8.61263h.5244l2.20738,7.42109h15.41597v-68.89007h-15.89919l-1.85595,7.41834Zm-14.57311,47.0304c-11.12751,0-15.23478-9.14251-15.23478-20.00645,0-10.86119,3.84095-20.00371,15.23478-20.00371,11.26203,0,15.23478,9.27704,15.23478,20.00371,0,10.86394-4.10453,20.00645-15.23478,20.00645" style="fill:#264a5c;"/><path d="m494.96138,348.53838c0,19.07573-6.71553,27.89976-19.3805,27.89976-15.3144,0-23.62778-10.0348-23.62778-28.64654s8.31337-28.77283,23.62778-28.77283c12.93681,0,18.34817,7.12731,19.79503,14.65547l17.86774-6.66607c-4.19789-15.11123-16.98916-26.73293-37.66277-26.73293-29.69807,0-44.74339,20.85481-44.74339,47.51636,0,26.26893,12.47004,47.25828,42.16811,47.25828,20.39908,0,23.92702-21.35998,23.92702-21.35998h.98838l-2.2458,19.25144h19.50404v-44.40296h-20.21785Z" style="fill:#264a5c;"/><path d="m221.11401,394.17901v-53.529h-16.09137c-10.60312,0-16.69813,7.2893-16.69813,19.74014v33.78886h-16.82717v-68.90105h14.97395l1.32334,14.65548h.52988c3.05025-6.49036,9.1425-15.71524,17.88967-15.71524h15.56149v-16.52241l15.76739-3.70642h1.32334v21.2886h13.39803l1.92186,15.10574h-15.31989v53.79531h-17.75239Z" style="fill:#264a5c;"/><path d="m356.91575,47.83154c3.08869,9.84538,4.7634,20.3167,4.7634,31.18064,0,57.48802-59.87382,170.07819-104.09008,170.07819,69.15637,0,125.21948-56.06309,125.21948-125.22223,0-28.63279-9.71909-54.94017-25.8928-76.0366" style="fill:#d1e5e3;"/><path d="m153.49593,79.0127c0-10.86392,1.67749-21.33526,4.76343-31.18062-16.17373,21.09367-25.8928,47.40104-25.8928,76.0366,0,69.15911,56.0631,125.22222,125.22224,125.22222-42.7035,0-104.09287-112.59018-104.09287-170.0782" style="fill:#d1e5e3;"/><path d="m257.58769,21.80476c12.24767,0,22.17541,9.925,22.17541,22.17264s-9.92774,22.17266-22.17541,22.17266-22.1699-9.925-22.1699-22.17266,9.92223-22.17264,22.1699-22.17264m-40.09801,121.77936c0-35.66129,17.9528-64.57139,40.09801-64.57139,22.14795,0,40.10077,28.9101,40.10077,64.57139,0,1.0982-.06315,2.30897-.10433,3.47856,23.32851-13.7275,39.01629-39.02728,39.01629-68.04996,0-43.63694-35.373-79.01272-79.01272-79.01272s-79.01272,35.37579-79.01272,79.01272c0,29.02267,15.69328,54.32246,39.01629,68.04996-.03844-1.16959-.10157-2.38036-.10157-3.47856" style="fill:#264a5c;"/><path d="m233.37102,164.05125c1.09818,25.51394,17.41743,68.60455,24.21805,68.60455s23.11984-43.0906,24.21805-68.60455c-7.30304,3.62957-15.50933,5.72438-24.21805,5.72438-8.71148,0-16.91777-2.09482-24.21805-5.72438" style="fill:#264a5c;"/></g></svg>