<?xml version="1.0" encoding="UTF-8" standalone="no"?>
<svg
   xmlns:dc="http://purl.org/dc/elements/1.1/"
   xmlns:cc="http://creativecommons.org/ns#"
   xmlns:rdf="http://www.w3.org/1999/02/22-rdf-syntax-ns#"
   xmlns:svg="http://www.w3.org/2000/svg"
   xmlns="http://www.w3.org/2000/svg"
   xmlns:sodipodi="http://sodipodi.sourceforge.net/DTD/sodipodi-0.dtd"
   xmlns:inkscape="http://www.inkscape.org/namespaces/inkscape"
   width="1920"
   height="1080"
   viewBox="0 0 508 285.74999"
   version="1.1"
   id="svg8"
   inkscape:version="1.0.1 (3bc2e813f5, 2020-09-07)"
   sodipodi:docname="curvas_blanco.svg">
  <defs
     id="defs2">
    <clipPath
       clipPathUnits="userSpaceOnUse"
       id="clipPath864">
      <rect
         style="fill:#ffffff;fill-opacity:0;stroke:#000dff;stroke-width:0.683014;stroke-miterlimit:4;stroke-dasharray:none;stroke-opacity:1"
         id="rect866"
         width="348.00345"
         height="195.1711"
         x="-267.74707"
         y="-125.5208"
         transform="matrix(0,-1,-1,0,0,0)" />
    </clipPath>
  </defs>
  <sodipodi:namedview
     id="base"
     pagecolor="#ffffff"
     bordercolor="#666666"
     borderopacity="1.0"
     inkscape:pageopacity="0.0"
     inkscape:pageshadow="2"
     inkscape:zoom="0.35"
     inkscape:cx="812.96146"
     inkscape:cy="818.09274"
     inkscape:document-units="mm"
     inkscape:current-layer="layer1"
     inkscape:document-rotation="0"
     showgrid="false"
     inkscape:window-width="1920"
     inkscape:window-height="1017"
     inkscape:window-x="-8"
     inkscape:window-y="-8"
     inkscape:window-maximized="1"
     height="55mm"
     fit-margin-top="0"
     fit-margin-left="0"
     fit-margin-right="0"
     fit-margin-bottom="0"
     units="px" />
  <metadata
     id="metadata5">
    <rdf:RDF>
      <cc:Work
         rdf:about="">
        <dc:format>image/svg+xml</dc:format>
        <dc:type
           rdf:resource="http://purl.org/dc/dcmitype/StillImage" />
        <dc:title></dc:title>
      </cc:Work>
    </rdf:RDF>
  </metadata>
  <g
     inkscape:label="Capa 1"
     inkscape:groupmode="layer"
     id="layer1"
     transform="translate(2.8819545,87.055173)">
    <g
       id="g860"
       transform="matrix(1.4641,0,0,1.4641,327.54758,-29.410745)"
       style="stroke:#ffffff;stroke-width:0.409808;stroke-miterlimit:4;stroke-dasharray:none;stroke-opacity:1"
       clip-path="url(#clipPath864)">
      <path
         id="path847"
         style="fill:none;stroke:#ffffff;stroke-width:0.409808;stroke-linecap:butt;stroke-linejoin:miter;stroke-miterlimit:4;stroke-dasharray:none;stroke-opacity:1"
         d="m 51.202193,27.864534 c 5.983329,2.58213 11.457253,-3.765273 8.326321,-9.039981 C 54.981336,11.535234 47.064985,8.437333 40.021139,4.0750442 30.77344,-2.8246083 34.329636,-2.4469231 30.859442,-13.55896 c -3.48348,-10.448349 -4.678022,-3.18567 -4.525708,3.515148 0.543671,7.9943509 6.040706,11.0549793 8.650791,14.7459534 4.600002,6.1503996 8.401606,19.6668956 16.217668,23.1623926 z"
         sodipodi:nodetypes="ccccccc" />
      <path
         id="path849"
         style="fill:none;stroke:#ffffff;stroke-width:0.409808;stroke-linecap:butt;stroke-linejoin:miter;stroke-miterlimit:4;stroke-dasharray:none;stroke-opacity:1"
         d="m 24.630131,-2.8045232 c 2.054781,4.381768 4.350943,6.5139059 7.975456,14.3887292 3.727419,6.921596 7.927228,14.628505 13.362923,19.372956 4.276966,3.477134 11.836022,9.222178 18.405355,2.598965 4.589261,-5.15919 11.7039,-10.945554 8.768636,-18.661637 C 69.931925,9.1057216 64.497126,6.0930717 58.837329,2.8163791 52.367112,-0.66811701 40.813958,3.6486826 37.404295,-5.202831 c -3.946142,-6.800599 1.976221,-17.566001 -5.947376,-21.886337 -6.017325,-3.449673 -8.326607,0.255065 -8.700331,7.89425 -0.0083,4.466172 -1.209315,9.118138 1.873543,16.3903948 z"
         sodipodi:nodetypes="cccccccccc" />
      <path
         id="path851"
         style="fill:none;stroke:#ffffff;stroke-width:0.409808;stroke-linecap:butt;stroke-linejoin:miter;stroke-miterlimit:4;stroke-dasharray:none;stroke-opacity:1"
         d="m 28.774276,12.825249 c 3.006945,5.842449 6.761504,16.25349 12.462385,22.530372 4.417332,4.627044 14.218089,8.303954 21.860267,6.30679 8.953111,-2.83793 12.357005,-12.149025 19.74528,-16.652617 C 89.628719,20.486126 86.583262,9.8556191 79.273761,6.691898 73.445661,4.1667982 73.053534,-5.3522757 64.644699,-5.2176604 58.353412,-5.2525816 44.511311,-8.7005661 41.448502,-11.982842 c -4.942872,-5.98206 -2.236999,-18.061192 -6.373519,-23.448302 -3.30352,-3.879708 -7.715207,-8.37244 -11.825441,-2.244354 -4.611436,6.904923 -6.124237,14.848667 -5.190541,24.905978 2.002013,13.13353123 6.442865,15.5786937 10.715275,25.594769 z"
         sodipodi:nodetypes="ccccccccccc" />
      <path
         id="path857"
         style="fill:none;stroke:#ffffff;stroke-width:0.409808;stroke-linecap:butt;stroke-linejoin:miter;stroke-miterlimit:4;stroke-dasharray:none;stroke-opacity:1"
         d="m 36.630963,42.79592 c 8.823359,5.468104 14.333587,5.509053 21.70808,6.003366 5.983443,0.138855 8.051292,-1.472494 13.084187,-5.471588 4.594095,-5.456007 7.753196,-11.438165 13.203191,-15.463164 5.509037,-4.079009 7.760619,10.705554 9.691643,1.036426 1.325867,-6.88219 2.161161,-15.560222 -2.643346,-21.5411716 -3.347651,-4.4556076 -7.551302,-5.561357 -9.461905,-9.2925053 -3.216703,-9.1576361 5.086194,-10.3731031 5.340734,-19.3495501 0.364408,-8.305691 -0.615104,-9.455781 -9.350302,-0.811104 -6.706721,6.996995 -17.265165,8.893858 -24.622097,7.731569 -7.633569,-1.568759 -11.747802,-10.674238 -13.441137,-16.771728 -1.462239,-4.884835 -1.713601,-12.518364 -6.898877,-16.771429 -2.876429,-2.586124 -9.115513,-5.991272 -12.489477,-0.475795 -3.121554,5.417857 -7.468788,15.607139 -7.493687,26.644211 0.5196,18.7488632 5.755195,18.3123835 8.683159,31.877919 3.250338,13.496972 7.224494,27.344061 14.689834,32.654544 z"
         sodipodi:nodetypes="cccccccccccccccc" />
      <path
         id="path861"
         style="fill:none;stroke:#ffffff;stroke-width:0.409808;stroke-linecap:butt;stroke-linejoin:miter;stroke-miterlimit:4;stroke-dasharray:none;stroke-opacity:1"
         d="m 85.221156,100.89825 c 3.320682,-5.125946 4.506881,-14.119589 -4.520003,-11.181087 -3.773407,3.546523 -10.26205,18.148447 0.237951,14.749507 1.188249,-0.90272 2.771177,-2.58142 4.282113,-3.56842 z" />
      <path
         id="path863"
         style="fill:none;stroke:#ffffff;stroke-width:0.409808;stroke-linecap:butt;stroke-linejoin:miter;stroke-miterlimit:4;stroke-dasharray:none;stroke-opacity:1"
         d="m 91.882213,101.61193 c 3.501454,-5.687416 6.299295,-15.30779 -0.475787,-20.221072 -5.897722,-2.524495 -15.957133,-6.659461 -20.221055,0.475816 -3.644025,6.467653 -3.157835,14.489923 -4.924677,21.168006 -2.383322,9.65621 9.168747,10.14136 15.867831,8.80673 5.267252,-1.44247 7.598498,-5.93651 9.753688,-10.22948 z" />
      <path
         id="path865"
         style="fill:none;stroke:#ffffff;stroke-width:0.409808;stroke-linecap:butt;stroke-linejoin:miter;stroke-miterlimit:4;stroke-dasharray:none;stroke-opacity:1"
         d="m 64.048521,85.078237 c -2.250958,8.405958 -8.939926,18.630803 -8.133974,24.379223 1.576107,7.50638 13.995157,6.1505 12.653946,12.61341 -1.348479,7.08967 6.139707,13.56028 8.561052,4.03247 1.664332,-8.25969 10.36789,-8.69827 15.704237,-12.83455 8.362768,-6.93826 10.859398,-16.085919 9.350098,-28.47699 -0.79191,-6.412929 0.23358,-12.736815 -7.82787,-11.362573 -5.670787,0.955152 -11.636409,-0.343365 -12.465392,-6.787856 -0.09581,-3.926229 5.452559,-5.928917 7.850522,-8.564212 4.116312,-3.684024 5.947559,-10.23488 5.947369,-15.225234 0.211895,-10.108973 7.596551,-5.229838 7.289111,-13.764116 C 102.47907,21.141972 101.32241,11.730701 96.640082,6.2160987 90.61134,0.2092519 86.51062,-9.6572721 90.242268,-14.191059 c 4.247089,-6.860005 7.704139,-14.641044 5.89282,-23.000143 -1.285822,-4.475452 -5.502019,-11.810418 -11.389732,-2.744276 -3.982097,5.75044 -21.189955,13.047776 -28.801315,9.483776 C 47.586379,-34.444196 44.953982,-41.202663 40.259027,-49.094451 35.851043,-57.449173 33.83919,-61.43732 26.223244,-60.870254 18.276681,-59.854865 13.8475,-49.433149 11.592703,-45.169185 4.7345301,-29.736747 4.119651,-14.789595 7.4391452,-9.2152348 13.673668,-2.2955001 16.522069,12.797058 18.651072,21.581768 c 5.161558,18.274038 7.44606,25.877892 29.696384,35.543823 6.39975,3.036456 13.855381,4.510338 15.733213,11.455044 1.526191,6.283267 2.327515,9.889813 -0.03173,16.497602 z"
         sodipodi:nodetypes="ccccccccccccccccccccccccc" />
      <path
         id="path867"
         style="fill:none;stroke:#ffffff;stroke-width:0.409808;stroke-linecap:butt;stroke-linejoin:miter;stroke-miterlimit:4;stroke-dasharray:none;stroke-opacity:1"
         d="m 115.43381,-9.0091801 c -9.70464,-4.1605959 -12.45888,5.5402946 -11.92618,12.5946518 1.02537,9.3164603 8.87,16.0710143 8.20779,25.2455953 0.12497,8.989041 -10.10588,11.364025 -11.982687,21.395583 -2.076384,9.048931 -13.913527,15.882469 -3.195436,17.432458 6.329503,0.745176 13.845843,1.585625 13.662823,8.022273 -0.20059,8.605515 -2.30858,14.103603 -3.56845,21.648428 -0.91298,4.121911 -3.76317,9.677671 -5.47156,13.084221 -1.894009,4.62312 -6.697589,11.1247 -2.141062,15.46316 8.142442,5.55183 16.486062,-4.37892 25.736112,-2.05328 8.96382,2.26983 17.76778,5.2477 27.3144,4.90802"
         sodipodi:nodetypes="ccccccccccc" />
      <path
         id="path869"
         style="fill:none;stroke:#ffffff;stroke-width:0.409808;stroke-linecap:butt;stroke-linejoin:miter;stroke-miterlimit:4;stroke-dasharray:none;stroke-opacity:1"
         d="m 120.98036,8.1955447 c -4.21386,7.4150583 -3.37863,16.5096163 -5.30869,24.6647793 -1.22773,8.190029 -6.96709,14.94931 -11.65683,21.172629 -7.155028,6.634137 0.57619,10.93454 8.32629,10.705293 13.95959,-0.505289 4.27818,14.789962 1.81353,25.561633 -1.28409,4.954216 -5.88532,22.321691 2.9573,21.558321 5.71968,-0.4974 10.20377,-3.46264 13.50649,-7.92148 4.65394,-5.878213 11.52176,-5.997333 17.40692,-7.320585"
         sodipodi:nodetypes="cccccccc" />
      <path
         id="path871"
         style="fill:none;stroke:#ffffff;stroke-width:0.409808;stroke-linecap:butt;stroke-linejoin:miter;stroke-miterlimit:4;stroke-dasharray:none;stroke-opacity:1"
         d="m 127.09065,37.618201 c 0.17431,8.747466 -15.12191,13.584775 -12.38917,21.479661 5.59702,-0.45518 10.16087,-5.444063 15.48178,-7.443863" />
      <path
         id="path875"
         style="fill:none;stroke:#ffffff;stroke-width:0.409808;stroke-linecap:butt;stroke-linejoin:miter;stroke-miterlimit:4;stroke-dasharray:none;stroke-opacity:1"
         d="m 134.22748,72.112963 c -3.38519,6.511327 -10.1085,10.558911 -12.60842,18.080018 -4.06912,14.478409 0.30245,16.249069 8.32631,5.947363 4.0739,-3.157806 8.09397,-6.576411 12.84632,-8.564212"
         sodipodi:nodetypes="cccc" />
      <path
         id="path877"
         style="fill:none;stroke:#ffffff;stroke-width:0.409808;stroke-linecap:butt;stroke-linejoin:miter;stroke-miterlimit:4;stroke-dasharray:none;stroke-opacity:1"
         d="m -2.4110788,-81.182846 c 3.8891505,10.89059 9.5365293,15.154509 20.5224798,13.120942 7.369271,-0.689019 19.482503,-9.840103 23.886827,7.065101 3.138982,14.739441 13.026288,25.514185 20.430854,23.67143 9.010701,-2.7763 12.079899,-22.046075 22.799191,-23.922897 9.367801,-1.33323 15.804697,7.249932 17.664527,15.391011 1.72166,7.574121 -1.31314,14.704889 6.56539,22.286294 5.27255,4.478459 15.01089,15.387775 5.97562,14.5617849"
         sodipodi:nodetypes="cccccccc" />
      <path
         id="path879"
         style="fill:none;stroke:#ffffff;stroke-width:0.409808;stroke-linecap:butt;stroke-linejoin:miter;stroke-miterlimit:4;stroke-dasharray:none;stroke-opacity:1"
         d="m 37.961011,-86.565779 c 11.237724,2.352193 11.449431,17.10806 15.980619,25.232547 7.174133,11.250709 5.865114,-10.631523 10.892365,-17.771121 0,0 4.6244,-5.556252 10.134756,-7.124992"
         sodipodi:nodetypes="cccc" />
      <path
         id="path881"
         style="fill:none;stroke:#ffffff;stroke-width:0.409808;stroke-linecap:butt;stroke-linejoin:miter;stroke-miterlimit:4;stroke-dasharray:none;stroke-opacity:1"
         d="m 95.491247,-85.89291 c 6.929633,3.216774 12.413373,21.791836 12.989913,33.219954 2.24837,25.278582 6.18497,23.515736 10.72867,24.646728 8.07544,0.73827 15.80513,-12.001755 19.68138,-11.438777"
         sodipodi:nodetypes="cccc" />
      <path
         id="path883"
         style="fill:none;stroke:#ffffff;stroke-width:0.409808;stroke-linecap:butt;stroke-linejoin:miter;stroke-miterlimit:4;stroke-dasharray:none;stroke-opacity:1"
         d="m 120.98036,8.1955447 c 2.59621,-5.5239731 9.55172,-3.8276998 14.21008,-5.6063007" />
    </g>
  </g>
</svg>
