<?xml version="1.0" encoding="UTF-8" standalone="no"?>
<svg
   xmlns:dc="http://purl.org/dc/elements/1.1/"
   xmlns:cc="http://creativecommons.org/ns#"
   xmlns:rdf="http://www.w3.org/1999/02/22-rdf-syntax-ns#"
   xmlns:svg="http://www.w3.org/2000/svg"
   xmlns="http://www.w3.org/2000/svg"
   xmlns:sodipodi="http://sodipodi.sourceforge.net/DTD/sodipodi-0.dtd"
   xmlns:inkscape="http://www.inkscape.org/namespaces/inkscape"
   version="1.1"
   id="svg4"
   sodipodi:docname="esri.svg"
   width="83.994049"
   height="29.305864"
   inkscape:version="1.0.1 (3bc2e813f5, 2020-09-07)">
  <metadata
     id="metadata10">
    <rdf:RDF>
      <cc:Work
         rdf:about="">
        <dc:format>image/svg+xml</dc:format>
        <dc:type
           rdf:resource="http://purl.org/dc/dcmitype/StillImage" />
        <dc:title></dc:title>
      </cc:Work>
    </rdf:RDF>
  </metadata>
  <defs
     id="defs8" />
  <sodipodi:namedview
     pagecolor="#ffffff"
     bordercolor="#666666"
     borderopacity="1"
     objecttolerance="10"
     gridtolerance="10"
     guidetolerance="10"
     inkscape:pageopacity="0"
     inkscape:pageshadow="2"
     inkscape:window-width="1920"
     inkscape:window-height="1017"
     id="namedview6"
     showgrid="false"
     fit-margin-top="0"
     fit-margin-left="0"
     fit-margin-right="0"
     fit-margin-bottom="0"
     inkscape:zoom="3.39"
     inkscape:cx="150.09905"
     inkscape:cy="74.5"
     inkscape:window-x="-8"
     inkscape:window-y="-8"
     inkscape:window-maximized="1"
     inkscape:current-layer="svg4" />
  <path
     d="m 77.376049,0 c -1.48,0 -2.554,1.175 -2.554,2.488 0,1.314 1.074,2.49 2.554,2.49 1.48,0 2.622,-1.071 2.622,-2.49 0,-1.416 -1.143,-2.488 -2.622,-2.488 z m -1.913,23.426 h 3.891 V 7.853 h -3.891 z m -34.849,-15.961 c -4.702,0 -8.465,3.275 -8.465,8.174 0,4.898 3.763,8.177 8.465,8.177 2.146,0 4.165,-0.667 5.852,-2.31 l -2.457,-2.457 c -0.916,0.964 -2.093,1.651 -3.78,1.651 -2.175,0 -3.927,-1.397 -4.188,-3.698 h 11.875 v -1.07 c 0,-5.42 -2.95,-8.467 -7.302,-8.467 z m -4.573,6.617 c 0.293,-2.24 1.721,-3.7 4.023,-3.7 2.434,0 3.926,1.43 3.96,3.7 z m 17.305,-1.849 c 0,-1.169 1.233,-1.655 2.273,-1.655 1.32,0 2.292,0.547 3.037,1.577 l 2.476,-2.474 c -1.282,-1.6 -3.407,-2.216 -5.418,-2.216 -3.147,0 -6.262,1.555 -6.262,5.028 0,5.938 8.403,3.406 8.403,6.617 0,1.233 -1.46,1.784 -2.595,1.784 -1.65,0 -2.687,-0.806 -3.69,-1.905 l -2.515,2.514 c 1.58,1.711 3.62,2.313 5.978,2.313 3.179,0 6.717,-1.299 6.717,-4.998 0,-6.067 -8.404,-3.795 -8.404,-6.585 z m 14.15,-1.916 h -0.062 V 7.853 h -3.892 v 15.573 h 3.892 v -8.34 c 0,-0.842 0.518,-3.925 4.185,-3.925 0.564,0 1.127,0.112 1.718,0.253 l 0.152,-3.726 c -0.45,-0.127 -0.901,-0.223 -1.382,-0.223 -2.046,0 -3.766,1.07 -4.61,2.852 z m -52.714,-8.051 c -1.217,-0.037 -1.932,0.12 -2.651,0.26 -0.216,-0.056 -0.62,0.003 -0.643,0.472 0,0.252 0.08,0.447 0.24,0.562 0.159,0.114 1.493,1.1 2.473,2.142 -0.47,0.052 -0.98,0.138 -1.504,0.246 -0.585,-1.264 -2.465,-0.114 -3.7140001,-0.064 -0.146,0.006 -0.286,0.025 -0.431,0.035 -0.137,-1.056 -0.235,-2.15 -0.21,-2.92 1.618,-0.917 4.7480001,-1.593 6.8740001,-1.626 l 0.373,-0.01 c 0.312,-0.003 0.337,-0.251 0.043,-0.291 -2.641,-0.361 -4.929,0.173 -7.2790001,1.145 -2.446,1.031 -5.558,3.403 -7.454,7.879 -0.444,1.247 -2.219,7.195 0.935,12.3 2.56,4.142 5.855,6.113 9.8870001,6.676 4.024,0.561 6.207,0.075 8.752,-1.055 5.951,-2.642 10.496,-12.559 5.95,-19.747 -1.794,-3.319 -6.495,-6.229 -11.641,-6.004 z m -2.259,4.647 a 17.754,17.754 0 0 1 2.362,-0.368 15.741,15.741 0 0 1 1.748,2.54 c -0.805,0.39 -1.878,0.688 -2.315,1.312 -0.181,0.26 -0.226,0.613 -0.232,0.995 a 23.59,23.59 0 0 0 -3.877,1.286 C 9.7560489,11.346 9.3590489,10.018 9.0850489,8.836 10.381049,7.599 11.898049,7.398 12.523049,6.913 Z m 6.61,15.88 c -0.354,0.038 -0.706,0.083 -1.016,0.13 -0.77,0.121 -1.762,0.379 -2.685,0.723 -0.53,-0.843 -1.95,-2.891 -2.667,-4.437 1.442,-0.709 3.457,-1.303 5.775,-1.444 0.19,0.33 0.4,0.66 0.69,0.956 0.757,0.774 -0.44,1.883 -0.096,4.072 z m -8.603,-9.14 c 1.12,-0.53 2.3,-0.968 3.56,-1.286 -0.008,0.333 -0.045,0.649 -0.182,0.903 -0.196,0.366 -0.106,1.428 0.134,1.775 0.755,1.099 2.008,0.488 2.951,0.883 0.433,0.181 0.721,0.482 0.964,0.84 -1.974,0.124 -3.91,0.584 -5.706,1.41 -0.923,-1.96 -1.72,-4.524 -1.72,-4.524 z m 0.832,4.938 c -0.07,0.033 -0.145,0.074 -0.217,0.11 a 40.803,40.803 0 0 0 -3.2560001,-0.78 c -0.995,-0.204 -1.031,-0.15 -2.151,0.175 -0.16,0.046 -0.313,0.088 -0.462,0.133 a 36.17,36.17 0 0 1 -0.445,-1.202 c 1.436,-1.106 2.884,-2.034 4.821,-2.985 0.5000001,1.491 1.2150001,3.483 1.7100001,4.549 z m 0.768,4.528 c 0.293,-0.765 0.521,-1.331 0.605,-1.89 0.569,0.958 1.248,2 1.774,2.815 -0.819,0.397 -1.772,1.01 -2.672,1.685 0.062,-1.037 0.083,-2.064 0.293,-2.61 z m 5.334,-14.636 c -0.01,0.014 -0.028,0.026 -0.04,0.04 a 23.057,23.057 0 0 0 -1.376,-2.111 c 1.007,-0.061 2.246,-0.008 3.374,0.108 -1.014,0.363 -1.461,1.254 -1.958,1.963 z M 8.4360489,9.577 c 0.019,-0.026 0.039,-0.047 0.057,-0.072 0.234,1.182 0.513,2.16 0.886,3.518 -1.402,0.618 -3.881,2.148 -4.976,2.972 -0.198,-0.502 -0.404,-1.214 -0.589,-1.946 0.249,-0.737 0.758,-1.254 1.476,-1.325 1.228,-0.123 2.28,-1.95 3.146,-3.147 z m -5.41,-1.784 c 1.313,-1.838 3.096,-3.627 4.723,-4.52 -0.016,0.4 0.086,1.567 0.218,2.693 -0.57,0.057 -1.134,0.128 -1.692,0.211 a 12.084,12.084 0 0 0 -3.115,4.088 c -0.117,-1.054 -0.178,-1.933 -0.133,-2.472 z m -0.857,1.438 c 0,0 0.062,1.06 0.113,1.833 0,0 -0.781,0.886 -1.18,1.59 0.159,-1.443 0.498,-2.187 1.067,-3.423 z m 7.664,18.356 c -4.046,-1.267 -7.044,-4.677 -8.114,-8.253 a 17.475,17.475 0 0 1 -0.651,-6.473 c 0.056,0.01 0.186,0.072 0.38,0.017 0.135,-0.093 0.616,-0.43 0.957,-0.728 l 0.018,0.131 c -0.23,0.87 -0.371,1.775 -0.4,2.71 0.37,0.39 0.804,1.038 1.286,1.707 -0.31,0.23 -0.905,0.641 -1.045,0.741 -0.41,0.292 -0.406,0.753 -0.114,1.015 0.161,0.144 0.492,0.084 0.613,-0.01 0.358,-0.285 0.656,-0.513 1.066,-0.77 0.15,0.393 0.292,0.748 0.43,1.086 -0.175,0.188 -0.3,0.436 -0.342,0.798 -0.135,1.172 0.979,2.092 1.918,2.36 0.035,0.01 0.06,0.014 0.094,0.023 0.05,0.076 0.095,0.147 0.148,0.224 -0.487,0.378 -0.82,0.765 -1.049,1.063 -0.132,0.172 -0.28,0.43 -0.16,0.481 0.123,0.05 0.535,0 0.719,-0.034 0.466,-0.09 0.826,-0.606 1.148,-0.796 0.387,0.534 1.017,1.22 1.672,1.88 0.029,0.12 0.055,0.246 0.088,0.351 0.125,0.403 0.293,0.804 0.495,1.196 0.471,0.22 0.962,0.402 1.4640001,0.561 a 8.344,8.344 0 0 0 -0.6220001,0.72 z M 10.822049,27.9 c 0.155,-0.203 0.312,-0.454 0.505,-0.626 0.468,0.31 0.969,0.665 1.368,0.894 -0.615,-0.07 -1.337,-0.085 -1.873,-0.268 z m 3.113,0.31 c 0,0 -1.604,-1.062 -2.009,-1.471 0.803,-0.667 2.102,-1.459 3.128,-1.889 0.402,0.63 1.727,2.507 2.258,3.112 -0.963,0.168 -2.31,0.294 -3.377,0.248 z m 6.704,-1.51 c -0.286,0.189 -1.664,0.814 -2.204,0.988 a 23.43,23.43 0 0 1 -2.44,-3.202 c 0.844,-0.354 2.143,-0.67 3.346,-0.82 0.109,0.342 0.25,0.704 0.444,1.094 0.19,0.382 0.411,0.662 0.649,0.853 0.085,-0.053 0.164,-0.115 0.248,-0.17 -0.006,0.42 -0.018,0.846 -0.043,1.257 z m -0.33,-21.477 c -0.27,-0.172 -0.607,-0.108 -0.467,0.193 0.053,0.117 0.259,0.314 0.427,0.512 -0.986,-0.272 -3.608,-0.479 -4.856,-0.364 -0.815,-0.916 -1.744,-2.028 -2.861,-2.765 4.999,-0.311 9.49,1.756 11.473,4.186 -0.661,-0.344 -2.087,-0.834 -2.667,-0.963 -0.313,-0.319 -0.708,-0.58 -1.05,-0.8 z m 1.094,21.065 c 0.023,-0.407 0.04,-0.922 0.053,-1.396 0.487,-0.378 0.946,-0.79 1.37,-1.238 0.547,0.063 1.094,0.156 1.427,0.24 -0.74,0.936 -1.762,1.716 -2.85,2.394 z m 3.825,-3.724 c -0.12,0.253 -0.428,0.688 -0.633,0.894 -0.312,-0.126 -0.781,-0.258 -1.272,-0.375 0.078,-0.094 0.163,-0.182 0.24,-0.279 0.268,-1.796 -0.338,-2.37 0.42,-4.014 l 0.172,-0.371 c 0.418,0.118 0.812,0.247 1.153,0.386 0.043,0.616 0.04,2.728 -0.08,3.759 z m -0.708,-4.917 c 0.196,-0.407 0.412,-0.84 0.645,-1.27 0.061,0.547 0.105,1.08 0.131,1.563 a 9.256,9.256 0 0 0 -0.776,-0.293 z m 2.218,1.126 -0.194,0.756 c -0.137,0.515 -0.593,1.732 -0.832,2.223 0.091,-0.663 0.171,-2.384 0.148,-2.73 0.16,0.049 0.502,-0.147 0.559,-0.341 0.057,-0.195 -0.564,-0.495 -0.564,-0.495 a 20.742,20.742 0 0 0 -0.172,-2.7 c 0.142,-0.23 0.286,-0.452 0.434,-0.655 a 12.082,12.082 0 0 0 -0.186,-1.575 c 0.125,0.041 0.24,0.074 0.323,0.075 0.283,0.004 0.282,-0.19 0.192,-0.298 -0.058,-0.07 -0.328,-0.238 -0.643,-0.42 a 12.02,12.02 0 0 0 -2.78,-5.32 c 0.533,0.202 1.214,0.48 1.754,0.774 0.41,0.516 1.585,1.675 2.212,4.92 0.564,2.922 -0.06,5.143 -0.251,5.786 z m 54.247,-10.676 v -0.24 h 1.218 v 0.24 h -0.468 v 1.191 h -0.283 V 8.097 Z m 1.87,-0.24 0.365,1.025 0.368,-1.024 h 0.406 v 1.43 h -0.262 V 8.134 l -0.396,1.154 h -0.229 l -0.4,-1.154 v 1.154 h -0.261 v -1.43 h 0.409 z"
     id="path2" />
</svg>
