<?xml version="1.0" encoding="UTF-8" standalone="no"?>
<svg
   width="270.58612mm"
   height="176.06799mm"
   viewBox="0 0 270.58612 176.06799"
   version="1.1"
   id="svg8"
   inkscape:version="1.1.1 (3bf5ae0d25, 2021-09-20)"
   sodipodi:docname="lagisteria_vertical_dark.svg"
   xmlns:inkscape="http://www.inkscape.org/namespaces/inkscape"
   xmlns:sodipodi="http://sodipodi.sourceforge.net/DTD/sodipodi-0.dtd"
   xmlns="http://www.w3.org/2000/svg"
   xmlns:svg="http://www.w3.org/2000/svg"
   xmlns:rdf="http://www.w3.org/1999/02/22-rdf-syntax-ns#"
   xmlns:cc="http://creativecommons.org/ns#"
   xmlns:dc="http://purl.org/dc/elements/1.1/">
  <defs
     id="defs2" />
  <sodipodi:namedview
     id="base"
     pagecolor="#ffffff"
     bordercolor="#666666"
     borderopacity="1.0"
     inkscape:pageopacity="0.0"
     inkscape:pageshadow="2"
     inkscape:zoom="0.35"
     inkscape:cx="427.14286"
     inkscape:cy="375.71429"
     inkscape:document-units="mm"
     inkscape:current-layer="g847"
     inkscape:document-rotation="0"
     showgrid="false"
     fit-margin-top="0"
     fit-margin-left="0"
     fit-margin-right="0"
     fit-margin-bottom="0"
     inkscape:window-width="1920"
     inkscape:window-height="1017"
     inkscape:window-x="1912"
     inkscape:window-y="-8"
     inkscape:window-maximized="1"
     inkscape:pagecheckerboard="0" />
  <metadata
     id="metadata5">
    <rdf:RDF>
      <cc:Work
         rdf:about="">
        <dc:format>image/svg+xml</dc:format>
        <dc:type
           rdf:resource="http://purl.org/dc/dcmitype/StillImage" />
      </cc:Work>
    </rdf:RDF>
  </metadata>
  <g
     inkscape:label="Capa 1"
     inkscape:groupmode="layer"
     id="layer1"
     transform="translate(6.9547689,-62.774448)">
    <g
       id="g873">
      <g
         id="g847"
         transform="translate(-10.583334,51.65676)">
        <path
           style="fill:#f5f5f5;stroke-width:0.352778;fill-opacity:1"
           d="M 3.8637515,185.98109 C 3.7343984,185.85174 3.6285651,179.34299 3.6285651,171.5172 v -14.22871 h 4.0569446 4.0569443 v 10.75973 10.75972 h 7.584723 7.584722 v 3.70417 3.70416 H 15.505418 c -6.2735669,0 -11.512317,-0.10583 -11.6416665,-0.23518 z m 26.2931915,-2.85162 c 0.613266,-1.69775 2.97307,-8.16681 5.24401,-14.3757 l 4.128979,-11.28889 3.504787,-0.0998 3.504784,-0.0998 5.187047,14.21094 c 2.852875,7.81602 5.183537,14.33001 5.179254,14.47553 -0.0043,0.14552 -1.820287,0.26458 -4.035559,0.26458 h -4.027766 l -0.619094,-1.67569 c -0.980697,-2.65446 -0.842352,-2.59048 -5.36255,-2.48019 l -4.05517,0.0989 -0.723615,2.02847 -0.723614,2.02847 h -4.158262 -4.158263 z m 14.746623,-8.13359 c 0,-0.49505 -1.491904,-4.81805 -1.768517,-5.12453 -0.145711,-0.16144 -0.665709,0.89849 -1.155548,2.35539 -0.489843,1.45691 -0.79961,2.73993 -0.688372,2.85117 0.313408,0.31341 3.612437,0.2385 3.612437,-0.082 z m 113.241674,0.47222 v -10.77127 h -3.81 c -2.49297,0 -3.95634,-0.14634 -4.23334,-0.42334 -0.26856,-0.26856 -0.42333,-1.62277 -0.42333,-3.70416 v -3.28084 h 12.34722 12.34722 v 3.28084 c 0,2.08139 -0.15476,3.4356 -0.42333,3.70416 -0.27438,0.27438 -1.70002,0.42334 -4.05177,0.42334 h -3.62844 l -0.0934,10.67153 -0.0934,10.67152 -3.96875,0.0998 -3.96875,0.0998 z m 19.28518,10.51299 c -0.12935,-0.12935 -0.23518,-6.6381 -0.23518,-14.46389 v -14.22871 h 11.46528 11.46527 v 3.52778 3.52778 h -7.58472 -7.58472 v 1.94028 1.94027 h 7.23194 7.23195 v 3.52778 3.52778 h -7.23195 -7.23194 v 1.76389 1.76389 h 7.58472 7.58472 v 3.70417 3.70416 H 188.8957 c -6.17655,0 -11.33593,-0.10583 -11.46528,-0.23518 z m 26.92871,-14.21751 v -14.47509 h 8.22743 c 9.66066,0 10.72758,0.22419 13.29759,2.7942 1.92855,1.92855 2.65746,4.04757 2.36547,6.87665 -0.22754,2.20467 -0.82389,3.47696 -2.35959,5.03411 l -1.10754,1.12302 3.40605,6.56071 3.40604,6.56071 -4.47519,-0.099 -4.47519,-0.099 -2.35384,-4.40972 -2.35384,-4.40972 -2.54471,-0.10344 -2.54471,-0.10343 -0.0988,4.51316 -0.0988,4.51315 -4.14513,0.0994 -4.14514,0.0994 z m 14.08588,-2.64398 c 1.72658,-0.89285 1.98798,-3.07599 0.53207,-4.44375 -0.75091,-0.70544 -1.3492,-0.87198 -3.52778,-0.98199 l -2.62351,-0.13248 v 3.03717 3.03717 h 2.31058 c 1.3379,0 2.73072,-0.21727 3.30864,-0.51612 z m 15.54745,2.63278 v -14.46389 h 4.05695 4.05694 v 14.46389 14.46389 h -4.05694 -4.05695 z m 12.35356,14.3757 c 0.004,-0.0485 2.36657,-6.51757 5.25132,-14.3757 l 5.245,-14.2875 3.50028,-0.0998 3.50029,-0.0998 5.18865,14.2109 c 2.85376,7.81599 5.18616,14.335 5.18311,14.48668 -0.003,0.15167 -1.85743,0.23105 -4.12084,0.17639 l -4.1153,-0.0994 -0.55901,-1.66053 c -0.30745,-0.9133 -0.73114,-1.83156 -0.94152,-2.04057 -0.24082,-0.23926 -1.86034,-0.34289 -4.37191,-0.27975 l -3.98939,0.1003 -0.72357,2.02847 -0.72358,2.02847 h -4.16493 c -2.29072,0 -4.16209,-0.0397 -4.1586,-0.0882 z m 15.86866,-11.1322 c 0,-0.49505 -1.4919,-4.81805 -1.76851,-5.12453 -0.14571,-0.16144 -0.66571,0.89849 -1.15555,2.35539 -0.48984,1.45691 -0.79961,2.73993 -0.68837,2.85117 0.3134,0.31341 3.61243,0.2385 3.61243,-0.082 z m -28.22222,-21.45262 c 0,-0.85054 0.04,-1.54643 0.0889,-1.54643 0.0489,0 1.75514,-0.47625 3.79162,-1.05834 2.03647,-0.58208 3.90145,-1.05833 4.14439,-1.05833 0.27944,0 0.44172,0.51343 0.44172,1.39751 0,1.31596 -0.0772,1.41845 -1.32292,1.75617 -0.7276,0.19726 -2.6326,0.74052 -4.23333,1.20725 l -2.91042,0.8486 z m -101.6,-19.56911 c -11.26022,-1.4453 -18.69722,-5.80854 -18.69722,-10.96952 0,-0.94717 0.21696,-2.23297 0.48214,-2.85733 1.21023,-2.84948 5.80224,-5.82709 11.29684,-7.32526 l 2.78316,-0.75886 5.41893,5.41047 5.41893,5.41047 5.41892,-5.41047 5.41894,-5.41047 2.78315,0.75886 c 5.49461,1.49817 10.08661,4.47578 11.29685,7.32526 1.65213,3.88994 -0.66486,7.93523 -6.01331,10.49875 -6.36718,3.05179 -16.99682,4.43329 -25.60733,3.3281 z"
           id="path849" />
        <path
           style="fill:#fdd39c;stroke-width:0.352778"
           d="m 89.269487,187.0251 c 0.438824,-0.0844 1.073824,-0.0812 1.411111,0.007 0.337287,0.0883 -0.02177,0.15734 -0.797864,0.15342 -0.776111,-0.004 -1.052071,-0.0762 -0.613247,-0.16054 z m 26.703683,-15.27272 c 0,-8.05215 0.0463,-11.34621 0.10291,-7.32014 0.0566,4.02608 0.0566,10.61421 0,14.64028 -0.0566,4.02608 -0.10291,0.73202 -0.10291,-7.32014 z m 88.19445,0 c 0,-8.05215 0.0463,-11.34621 0.10291,-7.32014 0.0566,4.02608 0.0566,10.61421 0,14.64028 -0.0566,4.02608 -0.10291,0.73202 -0.10291,-7.32014 z M 11.899313,168.04822 c -1.48e-4,-6.01487 0.04795,-8.52508 0.106896,-5.57827 0.05894,2.94682 0.05906,7.86807 2.71e-4,10.93611 -0.05879,3.06805 -0.107015,0.65702 -0.107167,-5.35784 z m 108.947557,-1.94028 c 0,-0.87313 0.0688,-1.23031 0.15289,-0.79375 0.0841,0.43656 0.0841,1.15094 0,1.5875 -0.0841,0.43656 -0.15289,0.0794 -0.15289,-0.79375 z m -7.50749,-68.703478 -7.58165,-7.672917 7.67292,7.581646 c 7.12951,7.044699 7.83208,7.764189 7.58165,7.764189 -0.0502,0 -3.50301,-3.45281 -7.67292,-7.672918 z m 65.61975,-33.425696 c -1.4455,-1.455209 -2.5488,-2.645834 -2.45179,-2.645834 0.097,0 1.35907,1.190625 2.80456,2.645834 1.4455,1.455208 2.5488,2.645833 2.45179,2.645833 -0.097,0 -1.35907,-1.190625 -2.80456,-2.645833 z m -15.00252,-15.434029 -2.45998,-2.557639 2.55763,2.459983 c 1.40671,1.352991 2.55764,2.503929 2.55764,2.557639 0,0.258766 -0.37046,-0.08445 -2.65529,-2.459983 z m 6.69004,-25.047224 -1.03614,-1.146528 1.14653,1.036141 c 0.63059,0.569877 1.14653,1.085814 1.14653,1.146527 0,0.272542 -0.29109,0.0326 -1.25692,-1.03614 z"
           id="path861" />
        <path
           style="fill:#fec377;stroke-width:0.352778"
           d="m 103.54591,178.01419 -0.0812,-8.37847 h -6.337661 -6.337656 l -0.119038,3.43958 -0.119034,3.43958 0.01848,-3.52778 0.01849,-3.52777 6.446199,-0.0962 c 5.01918,-0.0749 6.48499,0.005 6.62141,0.36041 0.0964,0.25113 0.12933,4.10441 0.0732,8.56286 l -0.10198,8.10625 -0.0812,-8.37847 z m 6.1944,-20.98725 c 1.22028,-0.0691 3.12528,-0.0685 4.23333,0.001 1.10806,0.0698 0.10965,0.12631 -2.21868,0.12561 -2.32834,-7e-4 -3.23493,-0.0578 -2.01465,-0.12688 z m 20.18011,-74.791923 -8.99324,-9.084029 9.08403,8.993241 c 4.99621,4.94628 9.08403,9.034093 9.08403,9.084028 0,0.24976 -0.81776,-0.551811 -9.17482,-8.99324 z m 52.72068,-14.640279 -1.03614,-1.146528 1.08279,0.975078 c 0.59554,0.536293 1.2163,0.853793 1.37948,0.705556 0.16317,-0.148238 0.18249,-0.07108 0.0429,0.17145 -0.33515,0.582397 -0.28203,0.60791 -1.46904,-0.705556 z M 92.634281,57.452376 c 0,-1.067153 0.06614,-1.503715 0.146964,-0.970139 0.08083,0.533577 0.08083,1.406702 0,1.940278 -0.08083,0.533577 -0.146964,0.09701 -0.146964,-0.970139 z m 92.775739,-0.176389 c 0.003,-0.970139 0.0712,-1.325142 0.15225,-0.788899 0.0811,0.536243 0.0789,1.329994 -0.005,1.763889 -0.0837,0.433896 -0.15007,-0.0048 -0.14743,-0.97499 z m -17.75877,-5.027083 -1.21574,-1.322917 1.32292,1.215732 c 1.23134,1.131574 1.48512,1.430102 1.21573,1.430102 -0.059,0 -0.65426,-0.595313 -1.32291,-1.322917 z"
           id="path859" />
        <path
           style="fill:#feb454;stroke-width:0.352778"
           d="m 107.5065,171.75238 c 0,-8.05215 0.0463,-11.34621 0.10292,-7.32014 0.0566,4.02608 0.0566,10.61421 0,14.64028 -0.0566,4.02608 -0.10292,0.73202 -0.10292,-7.32014 z m -15.771682,5.03647 c 0.63059,-0.0782 1.662465,-0.0782 2.293055,0 0.630591,0.0783 0.114653,0.14229 -1.146527,0.14229 -1.261181,0 -1.777118,-0.064 -1.146528,-0.14229 z M 131.9556,163.38899 c 0.43882,-0.0844 1.07382,-0.0812 1.41111,0.007 0.33729,0.0883 -0.0218,0.15734 -0.79786,0.15343 -0.77611,-0.004 -1.05207,-0.0762 -0.61325,-0.16055 z m 29.18825,-62.89772 c 6.40071,-6.402919 11.71703,-11.64167 11.81405,-11.64167 0.097,0 -5.06056,5.238751 -11.46127,11.64167 -6.40072,6.40291 -11.71704,11.64166 -11.81405,11.64166 -0.097,0 5.06056,-5.23875 11.46127,-11.64166 z m 1.23327,-35.542365 -16.04994,-16.139585 16.13958,16.049937 c 8.87678,8.827463 16.13959,16.090276 16.13959,16.139584 0,0.248137 -1.3111,-1.04847 -16.22923,-16.049936 z m -21.01102,10.406945 -1.03614,-1.146528 1.14653,1.03614 c 1.06872,0.965828 1.30868,1.256915 1.03614,1.256915 -0.0607,0 -0.57665,-0.515937 -1.14653,-1.146527 z m 29.82172,-19.579168 -2.28286,-2.38125 2.38125,2.282864 c 2.21181,2.120423 2.54251,2.479636 2.28286,2.479636 -0.0541,0 -1.12567,-1.071563 -2.38125,-2.38125 z m -14.46575,-14.816668 -1.92822,-2.028472 2.02847,1.928227 c 1.88451,1.791384 2.19008,2.128718 1.92823,2.128718 -0.0551,0 -0.96795,-0.912813 -2.02848,-2.028473 z M 106.11051,24.644041 c 0.95555,-0.970139 1.81674,-1.763889 1.91376,-1.763889 0.097,0 -0.60543,0.79375 -1.56098,1.763889 -0.95555,0.970139 -1.81674,1.763889 -1.91376,1.763889 -0.097,0 0.60543,-0.79375 1.56098,-1.763889 z"
           id="path857" />
        <path
           style="fill:#fd8f00;stroke-width:0.352778"
           d="m 85.834341,186.37902 c -5.700695,-1.59898 -9.728567,-6.31319 -10.687537,-12.50866 -0.279548,-1.80603 -0.274295,-3.04809 0.01958,-4.62828 1.907085,-10.25482 12.214892,-15.66733 21.412293,-11.24334 1.869595,0.89928 5.131803,3.56502 5.116583,4.18105 -0.003,0.12319 -1.43446,1.15898 -3.180934,2.30175 -2.890252,1.8912 -3.230309,2.02991 -3.786826,1.54464 -1.809764,-1.57804 -4.154318,-2.12837 -6.488247,-1.52295 -5.556998,1.44146 -7.211833,8.87048 -2.886735,12.95935 1.324233,1.2519 2.598103,1.69937 4.817774,1.69233 1.236253,-0.004 2.277607,-0.26119 3.212803,-0.79375 2.153585,-1.22637 2.028131,-1.66989 -0.472351,-1.66989 H 90.76468 v -3.52778 -3.52777 h 6.35 6.35 v 8.29027 8.29028 h -3.32199 c -1.984687,0 -3.371185,-0.14758 -3.444196,-0.36661 -0.07844,-0.23533 -0.689063,-0.16113 -1.705095,0.20721 -2.27832,0.82595 -6.796349,0.98486 -9.159058,0.32215 z m 40.964839,-0.15452 c -1.42707,-0.3854 -3.37549,-1.06085 -4.32982,-1.501 l -1.73515,-0.80028 1.82537,-3.20661 1.82536,-3.20659 2.50445,1.06588 c 2.01081,0.85579 3.15028,1.09642 5.78093,1.22079 2.80894,0.1328 3.37747,0.0635 3.98428,-0.48565 1.71782,-1.55461 0.0919,-3.00536 -4.49952,-4.01464 -8.04421,-1.76829 -11.023,-4.2109 -11.04376,-9.05591 -0.0198,-4.62969 2.74707,-7.97867 7.67422,-9.28861 1.97889,-0.52611 7.64979,-0.51331 9.82521,0.0222 2.08313,0.51277 5.24722,1.86067 5.56151,2.36921 0.12565,0.2033 -0.57434,1.7288 -1.55553,3.38999 l -1.78399,3.02035 -1.30972,-0.5615 c -3.11242,-1.33436 -4.27402,-1.62806 -6.63466,-1.67755 -2.74635,-0.0576 -3.6709,0.37346 -3.6709,1.71142 0,0.43756 0.2004,0.96188 0.44534,1.16516 0.24494,0.20328 2.41858,0.86776 4.83031,1.47663 7.11692,1.79675 9.7081,3.48992 10.56819,6.90562 0.93396,3.7091 0.0918,6.80803 -2.47796,9.11849 -2.30953,2.07646 -4.37277,2.71801 -9.30894,2.89455 -3.08837,0.11045 -4.41024,-0.004 -6.47522,-0.56194 z m -19.10117,-14.47212 v -14.46389 h 4.05695 4.05694 v 14.46389 14.46389 h -4.05694 -4.05695 z m 13.70677,-66.58681 C 110.6723,94.400668 103.11689,86.534542 101.86356,84.820705 98.025276,79.572151 95.135543,73.114296 93.721243,66.624599 92.914119,62.920986 92.797078,52.156695 93.527539,48.80932 c 2.097324,-9.611103 5.911794,-16.888051 12.325721,-23.514051 14.34659,-14.820964 35.5194,-18.3483789 54.23225,-9.035158 8.50661,4.233658 16.94615,12.816301 20.79583,21.148415 1.51462,3.278213 2.84331,7.206654 3.57708,10.57613 1.16533,5.351227 0.9863,16.230707 -0.31977,19.431513 l -0.42494,1.041425 -13.50001,-13.88108 c -7.425,-7.634595 -14.46685,-14.704964 -15.64855,-15.711929 -4.34563,-3.703074 -9.47015,-5.537363 -15.46991,-5.537363 -5.93619,0 -10.478,1.581933 -15.06575,5.247475 -4.12025,3.292009 -7.08709,7.948235 -8.42457,13.221695 -0.8789,3.465368 -0.56374,9.929866 0.65128,13.358746 1.66581,4.701054 2.73645,6.055498 12.94906,16.381604 l 9.68918,9.796866 4.51012,-4.500108 c 2.48057,-2.475061 4.51012,-4.657164 4.51012,-4.849118 0,-0.191957 -3.7852,-4.083622 -8.41154,-8.648147 -4.62636,-4.564524 -8.83012,-8.865662 -9.3417,-9.558084 -2.22485,-3.011339 -2.73627,-7.663822 -1.20788,-10.988576 1.24827,-2.715444 2.48267,-3.989025 5.12896,-5.291787 1.98135,-0.975417 2.74242,-1.157912 4.82891,-1.157912 4.82613,0 4.08486,-0.587591 22.82855,18.095881 l 16.82392,16.769861 -0.55187,1.087963 c -0.30353,0.598378 -1.123,1.802338 -1.82105,2.675464 -1.34058,1.676805 -36.78765,37.733795 -37.10385,37.742275 -0.10148,0.003 -8.05853,-7.89286 -17.68235,-17.54575 z"
           id="path853" />
      </g>
    </g>
  </g>
</svg>
