<?xml version="1.0" encoding="UTF-8" standalone="no"?>
<!-- Generator: Adobe Illustrator 24.2.1, SVG Export Plug-In . SVG Version: 6.00 Build 0)  -->

<svg
   version="1.1"
   id="Capa_1"
   x="0px"
   y="0px"
   viewBox="0 0 440 200"
   xml:space="preserve"
   sodipodi:docname="lagisteria_dark.svg"
   width="440"
   height="200"
   inkscape:version="1.1.1 (3bf5ae0d25, 2021-09-20)"
   xmlns:inkscape="http://www.inkscape.org/namespaces/inkscape"
   xmlns:sodipodi="http://sodipodi.sourceforge.net/DTD/sodipodi-0.dtd"
   xmlns="http://www.w3.org/2000/svg"
   xmlns:svg="http://www.w3.org/2000/svg"
   xmlns:serif="http://www.serif.com/"><defs
   id="defs876" /><sodipodi:namedview
   id="namedview874"
   pagecolor="#ffffff"
   bordercolor="#999999"
   borderopacity="1"
   inkscape:showpageshadow="0"
   inkscape:pageopacity="0"
   inkscape:pagecheckerboard="0"
   inkscape:deskcolor="#d1d1d1"
   showgrid="true"
   showguides="true"
   inkscape:zoom="1"
   inkscape:cx="235.5"
   inkscape:cy="197.5"
   inkscape:window-width="1920"
   inkscape:window-height="1017"
   inkscape:window-x="1912"
   inkscape:window-y="-8"
   inkscape:window-maximized="1"
   inkscape:current-layer="g1008"
   inkscape:pageshadow="2"><inkscape:grid
     type="xygrid"
     id="grid1010"
     originx="0"
     originy="0" /></sodipodi:namedview>
<style
   type="text/css"
   id="style855">
	.st0{fill:none;}
	.st1{fill-rule:evenodd;clip-rule:evenodd;fill:#101820;}
	.st2{fill:#FF9800;}
	.st3{fill:#101820;}
</style>
<rect
   id="Logo-2021-H"
   y="93.199997"
   serif:id="Logo 2021 H"
   class="st0"
   width="500"
   height="313.39999"
   x="0">
</rect>












<g
   id="g1008"
   transform="matrix(1.2705,0,0,1.2705,-16.447974,-0.17892282)"><ellipse
     id="ellipse4904"
     class="st1"
     cx="77"
     cy="129.60001"
     rx="28.6"
     ry="11.9"
     style="fill:#f5f5f5;fill-opacity:1" /><path
     id="path4918"
     class="st2"
     d="m 77,16.1 c -12,0 -24,4.7 -33.2,13.8 -18.2,18.2 -18.3,47.9 0,66.2 l 33.2,33.2 34,-34 c 2,-2 3.8,-4.2 5.3,-6.5 0.4,-0.5 0.5,-1.1 0.9,-1.7 l -2.3,-2.3 -14.7,-14.7 -9.5,-9.5 v 0 L 85,55 c -4.4,-4.4 -11.6,-4.5 -16.1,0 -4.4,4.4 -4.3,11.6 0.1,16 0,0 7.6,7.6 12.7,12.7 2.5,2.5 2.5,6.5 0,8.9 -2.3,2.3 -4.7,4.7 -4.7,4.7 L 59.8,80.2 c -9.4,-9.4 -9.4,-24.8 0,-34.3 8.4,-8.4 21.2,-9.4 30.6,-3.1 1.3,0.9 2.6,1.9 3.7,3 l 2.2,2.3 c 0,0 0,0 0,0 l 25.9,26.5 c 0.2,-0.9 0.6,-1.7 0.8,-2.7 0.6,-3 0.9,-6 0.8,-9 0,-3 -0.3,-6 -0.9,-8.9 -0.6,-3 -1.4,-5.9 -2.6,-8.7 -1.1,-2.8 -2.6,-5.5 -4.3,-8.1 -1.5,-2.2 -3.3,-4.3 -5.2,-6.3 l -1,-1 c -1.9,-2 -4.1,-3.6 -6.2,-5.2 -0.9,-0.6 -1.8,-1.2 -2.7,-1.8 -0.8,-0.5 -1.6,-0.9 -2.5,-1.3 -0.8,-0.4 -1.5,-0.8 -2.3,-1.2 0,0 0,0 0,0 C 95.9,20.3 95.7,20.2 95.5,20.1 95.2,20 95,19.9 94.7,19.7 94.6,19.6 94.4,19.6 94.3,19.5 89,17.4 83.1,16.1 77,16.1 Z" /><path
     id="path4774"
     class="st3"
     d="M 146.4,89.8 V 60.4 h 8.2 v 21.9 h 15.2 v 7.4 h -23.4 z"
     style="fill:#f5f5f5;fill-opacity:1" /><path
     id="path4776"
     class="st3"
     d="m 193.1,89.8 -1.5,-4 h -8.4 l -1.5,4 h -8.6 l 10.7,-29.4 h 7.1 l 10.7,29.4 z m -5.7,-17 -1.9,5.7 h 3.7 z"
     style="fill:#f5f5f5;fill-opacity:1" /><path
     id="path4778"
     class="st2"
     d="M 167,141.5 V 140 c -2,1 -4.1,1.4 -6.3,1.4 -2,0 -3.9,-0.4 -5.7,-1.1 -1.8,-0.8 -3.3,-1.8 -4.6,-3.1 -1.3,-1.3 -2.3,-2.9 -3,-4.6 -0.7,-1.8 -1.1,-3.7 -1.1,-5.8 0,-2 0.4,-3.9 1.1,-5.7 0.8,-1.8 1.8,-3.4 3.1,-4.7 1.3,-1.3 2.9,-2.4 4.6,-3.2 1.8,-0.8 3.7,-1.2 5.7,-1.2 2.2,0 4.3,0.5 6.2,1.5 2,1 3.8,2.4 5.3,4.2 l -6.4,4.3 c -1.5,-1.6 -3.2,-2.4 -5,-2.4 -1,0 -1.9,0.2 -2.7,0.6 -0.8,0.4 -1.5,0.9 -2.1,1.6 -0.6,0.6 -1.1,1.4 -1.4,2.3 -0.3,0.9 -0.5,1.8 -0.5,2.7 0,1 0.2,1.9 0.5,2.7 0.4,0.8 0.8,1.6 1.4,2.3 0.6,0.6 1.3,1.2 2.1,1.6 0.8,0.4 1.8,0.5 2.7,0.5 0.9,0 1.8,-0.2 2.6,-0.5 0.9,-0.4 1.6,-0.9 2.2,-1.6 h -4.4 v -7.1 h 12.5 v 16.8 z" /><rect
     id="path4780"
     x="177.10001"
     y="112.1"
     class="st2"
     width="8.6000004"
     height="29.4" /><path
     id="path4782"
     class="st2"
     d="m 200.2,141.5 c -1.8,0 -3.6,-0.2 -5.4,-0.7 -1.8,-0.4 -3.4,-1.1 -5.1,-1.8 0,0 -0.1,0 -0.1,0 -0.1,0 -0.1,-0.1 -0.2,-0.1 -0.1,-0.1 -0.3,-0.2 -0.3,-0.3 -0.1,-0.1 -0.1,-0.2 -0.1,-0.3 0,0 0.2,-0.3 0.5,-0.9 0.3,-0.6 0.7,-1.2 1.1,-2 0.4,-0.6 0.8,-1.3 1.1,-1.8 0.3,-0.6 0.6,-1.1 0.8,-1.5 0.3,0.1 0.5,0.3 0.7,0.3 0.2,0.1 0.3,0.1 0.5,0.2 1.2,0.6 2.5,1.1 3.7,1.4 1.2,0.3 2.5,0.5 3.9,0.5 h 0.5 c 0.2,0 0.4,0 0.6,0 0.4,0 0.8,-0.1 1.1,-0.2 0.3,-0.1 0.6,-0.3 0.8,-0.6 0.3,-0.3 0.4,-0.6 0.4,-1.1 0,-0.4 -0.1,-0.6 -0.4,-0.8 -0.3,-0.2 -0.6,-0.4 -0.9,-0.5 -0.2,-0.1 -0.4,-0.2 -0.5,-0.2 -0.5,-0.2 -1,-0.3 -1.5,-0.4 -0.5,-0.1 -1,-0.2 -1.5,-0.3 -0.7,-0.1 -1.3,-0.3 -2,-0.4 -0.6,-0.2 -1.3,-0.3 -1.9,-0.5 -0.6,-0.2 -1.2,-0.4 -1.8,-0.6 -0.6,-0.3 -1.1,-0.5 -1.6,-0.8 -1,-0.6 -1.9,-1.5 -2.5,-2.5 -0.6,-1.1 -0.9,-2.5 -0.9,-4.2 0,-1.2 0.3,-2.4 0.8,-3.6 0.5,-1.1 1.2,-2 2,-2.7 0.8,-0.7 1.8,-1.3 2.8,-1.7 1,-0.4 2.1,-0.7 3.1,-0.8 1.1,-0.2 2.2,-0.3 3.3,-0.3 1.8,0 3.6,0.2 5.3,0.7 1.8,0.4 3.5,1.2 5.2,2.3 -0.6,1.1 -1.2,2.1 -1.8,3.1 -0.6,1 -1.2,2 -1.8,3.1 -1.4,-0.7 -2.8,-1.3 -4,-1.7 -1.2,-0.4 -2.6,-0.6 -4,-0.6 -0.3,0 -0.6,0 -1,0 -0.3,0 -0.7,0.1 -1,0.2 -0.3,0.1 -0.5,0.3 -0.8,0.5 -0.2,0.2 -0.3,0.5 -0.3,1 0,0.3 0.1,0.5 0.2,0.7 0.1,0.2 0.3,0.4 0.7,0.6 0.4,0.1 0.9,0.3 1.5,0.5 0.6,0.2 1.3,0.3 2,0.5 0.8,0.1 1.5,0.3 2.3,0.5 0.8,0.2 1.6,0.4 2.4,0.7 0.8,0.3 1.6,0.6 2.3,1 0.7,0.4 1.4,0.9 1.9,1.4 0.6,0.5 1,1.2 1.4,1.9 0.3,0.6 0.4,1.2 0.5,1.8 0.1,0.6 0.2,1.3 0.2,1.9 0,1.8 -0.4,3.3 -1.1,4.5 -0.7,1.2 -1.7,2.1 -2.9,2.8 -1.2,0.7 -2.5,1.2 -4,1.4 -1.2,0.2 -2.7,0.4 -4.2,0.4 z" /><path
     id="path4784"
     class="st3"
     d="m 240.8,119.7 h -8.3 v 21.7 h -8.4 v -21.7 h -8.3 v -7.6 h 24.9 v 7.6 z"
     style="fill:#f5f5f5;fill-opacity:1" /><path
     id="path4786"
     class="st3"
     d="m 244.1,141.5 v -29.4 h 23.3 v 7.4 h -15.5 v 3.6 h 14.7 v 7.4 h -14.7 v 3.6 h 15.5 v 7.4 z"
     style="fill:#f5f5f5;fill-opacity:1" /><path
     id="path4788"
     class="st3"
     d="m 289.2,141.5 -4.6,-9 h -5.2 v 9 h -8.6 v -29.4 h 15.3 c 0.7,0 1.4,0.1 2.1,0.3 0.7,0.2 1.5,0.4 2.1,0.8 0.7,0.3 1.3,0.7 1.9,1.2 0.6,0.5 1.1,1 1.5,1.6 0.5,0.7 0.9,1.5 1.2,2.4 0.3,0.9 0.4,1.7 0.4,2.6 0,1.4 -0.3,2.8 -1,4.1 -0.7,1.2 -1.5,2.3 -2.7,3.2 l 6.9,13.2 z M 283.7,119 h -4.3 v 5.6 h 4.3 c 0.8,0 1.4,-0.3 2,-0.8 0.6,-0.6 0.8,-1.2 0.8,-2 0,-0.8 -0.3,-1.4 -0.8,-2 -0.6,-0.6 -1.3,-0.8 -2,-0.8 z"
     style="fill:#f5f5f5;fill-opacity:1" /><rect
     x="301.70001"
     y="112.2"
     class="st1"
     width="8.6000004"
     height="29.4"
     id="rect868"
     style="fill:#f5f5f5;fill-opacity:1" /><path
     class="st1"
     d="m 301.7,108.9 v -3.3 l 8.6,-2.5 v 3.3 z"
     id="path870"
     style="fill:#f5f5f5;fill-opacity:1" /><path
     id="path4792"
     class="st3"
     d="m 333.6,141.5 -1.5,-4 h -8.4 l -1.5,4 h -8.6 l 10.7,-29.4 h 7.1 l 10.7,29.4 z m -5.6,-16.9 -1.9,5.7 h 3.7 z"
     style="fill:#f5f5f5;fill-opacity:1" /></g>
</svg>
