<?xml version="1.0" encoding="UTF-8" standalone="no"?>
<svg
   xmlns:dc="http://purl.org/dc/elements/1.1/"
   xmlns:cc="http://creativecommons.org/ns#"
   xmlns:rdf="http://www.w3.org/1999/02/22-rdf-syntax-ns#"
   xmlns:svg="http://www.w3.org/2000/svg"
   xmlns="http://www.w3.org/2000/svg"
   xmlns:sodipodi="http://sodipodi.sourceforge.net/DTD/sodipodi-0.dtd"
   xmlns:inkscape="http://www.inkscape.org/namespaces/inkscape"
   width="1920"
   height="1080"
   viewBox="0 0 508 285.74999"
   version="1.1"
   id="svg8"
   inkscape:version="1.0.1 (3bc2e813f5, 2020-09-07)"
   sodipodi:docname="logo_sobre_curvas_blanco.svg">
  <defs
     id="defs2">
    <clipPath
       clipPathUnits="userSpaceOnUse"
       id="clipPath864">
      <rect
         style="fill:#ffffff;fill-opacity:0;stroke:#000dff;stroke-width:0.683014;stroke-miterlimit:4;stroke-dasharray:none;stroke-opacity:1"
         id="rect866"
         width="348.00345"
         height="195.1711"
         x="-267.74707"
         y="-125.5208"
         transform="matrix(0,-1,-1,0,0,0)" />
    </clipPath>
  </defs>
  <sodipodi:namedview
     id="base"
     pagecolor="#ffffff"
     bordercolor="#666666"
     borderopacity="1.0"
     inkscape:pageopacity="0.0"
     inkscape:pageshadow="2"
     inkscape:zoom="0.35"
     inkscape:cx="812.96146"
     inkscape:cy="818.09274"
     inkscape:document-units="mm"
     inkscape:current-layer="layer1"
     inkscape:document-rotation="0"
     showgrid="false"
     inkscape:window-width="1920"
     inkscape:window-height="1017"
     inkscape:window-x="-8"
     inkscape:window-y="550"
     inkscape:window-maximized="1"
     height="55mm"
     fit-margin-top="0"
     fit-margin-left="0"
     fit-margin-right="0"
     fit-margin-bottom="0"
     units="px" />
  <metadata
     id="metadata5">
    <rdf:RDF>
      <cc:Work
         rdf:about="">
        <dc:format>image/svg+xml</dc:format>
        <dc:type
           rdf:resource="http://purl.org/dc/dcmitype/StillImage" />
        <dc:title></dc:title>
      </cc:Work>
    </rdf:RDF>
  </metadata>
  <g
     inkscape:label="Capa 1"
     inkscape:groupmode="layer"
     id="layer1"
     transform="translate(2.8819545,87.055173)">
    <g
       id="g860"
       transform="matrix(1.4641,0,0,1.4641,327.54758,-29.410745)"
       style="stroke:#ffffff;stroke-width:0.409808;stroke-miterlimit:4;stroke-dasharray:none;stroke-opacity:1"
       clip-path="url(#clipPath864)">
      <path
         id="path847"
         style="fill:none;stroke:#ffffff;stroke-width:0.409808;stroke-linecap:butt;stroke-linejoin:miter;stroke-miterlimit:4;stroke-dasharray:none;stroke-opacity:1"
         d="m 51.202193,27.864534 c 5.983329,2.58213 11.457253,-3.765273 8.326321,-9.039981 C 54.981336,11.535234 47.064985,8.437333 40.021139,4.0750442 30.77344,-2.8246083 34.329636,-2.4469231 30.859442,-13.55896 c -3.48348,-10.448349 -4.678022,-3.18567 -4.525708,3.515148 0.543671,7.9943509 6.040706,11.0549793 8.650791,14.7459534 4.600002,6.1503996 8.401606,19.6668956 16.217668,23.1623926 z"
         sodipodi:nodetypes="ccccccc" />
      <path
         id="path849"
         style="fill:none;stroke:#ffffff;stroke-width:0.409808;stroke-linecap:butt;stroke-linejoin:miter;stroke-miterlimit:4;stroke-dasharray:none;stroke-opacity:1"
         d="m 24.630131,-2.8045232 c 2.054781,4.381768 4.350943,6.5139059 7.975456,14.3887292 3.727419,6.921596 7.927228,14.628505 13.362923,19.372956 4.276966,3.477134 11.836022,9.222178 18.405355,2.598965 4.589261,-5.15919 11.7039,-10.945554 8.768636,-18.661637 C 69.931925,9.1057216 64.497126,6.0930717 58.837329,2.8163791 52.367112,-0.66811701 40.813958,3.6486826 37.404295,-5.202831 c -3.946142,-6.800599 1.976221,-17.566001 -5.947376,-21.886337 -6.017325,-3.449673 -8.326607,0.255065 -8.700331,7.89425 -0.0083,4.466172 -1.209315,9.118138 1.873543,16.3903948 z"
         sodipodi:nodetypes="cccccccccc" />
      <path
         id="path851"
         style="fill:none;stroke:#ffffff;stroke-width:0.409808;stroke-linecap:butt;stroke-linejoin:miter;stroke-miterlimit:4;stroke-dasharray:none;stroke-opacity:1"
         d="m 28.774276,12.825249 c 3.006945,5.842449 6.761504,16.25349 12.462385,22.530372 4.417332,4.627044 14.218089,8.303954 21.860267,6.30679 8.953111,-2.83793 12.357005,-12.149025 19.74528,-16.652617 C 89.628719,20.486126 86.583262,9.8556191 79.273761,6.691898 73.445661,4.1667982 73.053534,-5.3522757 64.644699,-5.2176604 58.353412,-5.2525816 44.511311,-8.7005661 41.448502,-11.982842 c -4.942872,-5.98206 -2.236999,-18.061192 -6.373519,-23.448302 -3.30352,-3.879708 -7.715207,-8.37244 -11.825441,-2.244354 -4.611436,6.904923 -6.124237,14.848667 -5.190541,24.905978 2.002013,13.13353123 6.442865,15.5786937 10.715275,25.594769 z"
         sodipodi:nodetypes="ccccccccccc" />
      <path
         id="path857"
         style="fill:none;stroke:#ffffff;stroke-width:0.409808;stroke-linecap:butt;stroke-linejoin:miter;stroke-miterlimit:4;stroke-dasharray:none;stroke-opacity:1"
         d="m 36.630963,42.79592 c 8.823359,5.468104 14.333587,5.509053 21.70808,6.003366 5.983443,0.138855 8.051292,-1.472494 13.084187,-5.471588 4.594095,-5.456007 7.753196,-11.438165 13.203191,-15.463164 5.509037,-4.079009 7.760619,10.705554 9.691643,1.036426 1.325867,-6.88219 2.161161,-15.560222 -2.643346,-21.5411716 -3.347651,-4.4556076 -7.551302,-5.561357 -9.461905,-9.2925053 -3.216703,-9.1576361 5.086194,-10.3731031 5.340734,-19.3495501 0.364408,-8.305691 -0.615104,-9.455781 -9.350302,-0.811104 -6.706721,6.996995 -17.265165,8.893858 -24.622097,7.731569 -7.633569,-1.568759 -11.747802,-10.674238 -13.441137,-16.771728 -1.462239,-4.884835 -1.713601,-12.518364 -6.898877,-16.771429 -2.876429,-2.586124 -9.115513,-5.991272 -12.489477,-0.475795 -3.121554,5.417857 -7.468788,15.607139 -7.493687,26.644211 0.5196,18.7488632 5.755195,18.3123835 8.683159,31.877919 3.250338,13.496972 7.224494,27.344061 14.689834,32.654544 z"
         sodipodi:nodetypes="cccccccccccccccc" />
      <path
         id="path861"
         style="fill:none;stroke:#ffffff;stroke-width:0.409808;stroke-linecap:butt;stroke-linejoin:miter;stroke-miterlimit:4;stroke-dasharray:none;stroke-opacity:1"
         d="m 85.221156,100.89825 c 3.320682,-5.125946 4.506881,-14.119589 -4.520003,-11.181087 -3.773407,3.546523 -10.26205,18.148447 0.237951,14.749507 1.188249,-0.90272 2.771177,-2.58142 4.282113,-3.56842 z" />
      <path
         id="path863"
         style="fill:none;stroke:#ffffff;stroke-width:0.409808;stroke-linecap:butt;stroke-linejoin:miter;stroke-miterlimit:4;stroke-dasharray:none;stroke-opacity:1"
         d="m 91.882213,101.61193 c 3.501454,-5.687416 6.299295,-15.30779 -0.475787,-20.221072 -5.897722,-2.524495 -15.957133,-6.659461 -20.221055,0.475816 -3.644025,6.467653 -3.157835,14.489923 -4.924677,21.168006 -2.383322,9.65621 9.168747,10.14136 15.867831,8.80673 5.267252,-1.44247 7.598498,-5.93651 9.753688,-10.22948 z" />
      <path
         id="path865"
         style="fill:none;stroke:#ffffff;stroke-width:0.409808;stroke-linecap:butt;stroke-linejoin:miter;stroke-miterlimit:4;stroke-dasharray:none;stroke-opacity:1"
         d="m 64.048521,85.078237 c -2.250958,8.405958 -8.939926,18.630803 -8.133974,24.379223 1.576107,7.50638 13.995157,6.1505 12.653946,12.61341 -1.348479,7.08967 6.139707,13.56028 8.561052,4.03247 1.664332,-8.25969 10.36789,-8.69827 15.704237,-12.83455 8.362768,-6.93826 10.859398,-16.085919 9.350098,-28.47699 -0.79191,-6.412929 0.23358,-12.736815 -7.82787,-11.362573 -5.670787,0.955152 -11.636409,-0.343365 -12.465392,-6.787856 -0.09581,-3.926229 5.452559,-5.928917 7.850522,-8.564212 4.116312,-3.684024 5.947559,-10.23488 5.947369,-15.225234 0.211895,-10.108973 7.596551,-5.229838 7.289111,-13.764116 C 102.47907,21.141972 101.32241,11.730701 96.640082,6.2160987 90.61134,0.2092519 86.51062,-9.6572721 90.242268,-14.191059 c 4.247089,-6.860005 7.704139,-14.641044 5.89282,-23.000143 -1.285822,-4.475452 -5.502019,-11.810418 -11.389732,-2.744276 -3.982097,5.75044 -21.189955,13.047776 -28.801315,9.483776 C 47.586379,-34.444196 44.953982,-41.202663 40.259027,-49.094451 35.851043,-57.449173 33.83919,-61.43732 26.223244,-60.870254 18.276681,-59.854865 13.8475,-49.433149 11.592703,-45.169185 4.7345301,-29.736747 4.119651,-14.789595 7.4391452,-9.2152348 13.673668,-2.2955001 16.522069,12.797058 18.651072,21.581768 c 5.161558,18.274038 7.44606,25.877892 29.696384,35.543823 6.39975,3.036456 13.855381,4.510338 15.733213,11.455044 1.526191,6.283267 2.327515,9.889813 -0.03173,16.497602 z"
         sodipodi:nodetypes="ccccccccccccccccccccccccc" />
      <path
         id="path867"
         style="fill:none;stroke:#ffffff;stroke-width:0.409808;stroke-linecap:butt;stroke-linejoin:miter;stroke-miterlimit:4;stroke-dasharray:none;stroke-opacity:1"
         d="m 115.43381,-9.0091801 c -9.70464,-4.1605959 -12.45888,5.5402946 -11.92618,12.5946518 1.02537,9.3164603 8.87,16.0710143 8.20779,25.2455953 0.12497,8.989041 -10.10588,11.364025 -11.982687,21.395583 -2.076384,9.048931 -13.913527,15.882469 -3.195436,17.432458 6.329503,0.745176 13.845843,1.585625 13.662823,8.022273 -0.20059,8.605515 -2.30858,14.103603 -3.56845,21.648428 -0.91298,4.121911 -3.76317,9.677671 -5.47156,13.084221 -1.894009,4.62312 -6.697589,11.1247 -2.141062,15.46316 8.142442,5.55183 16.486062,-4.37892 25.736112,-2.05328 8.96382,2.26983 17.76778,5.2477 27.3144,4.90802"
         sodipodi:nodetypes="ccccccccccc" />
      <path
         id="path869"
         style="fill:none;stroke:#ffffff;stroke-width:0.409808;stroke-linecap:butt;stroke-linejoin:miter;stroke-miterlimit:4;stroke-dasharray:none;stroke-opacity:1"
         d="m 120.98036,8.1955447 c -4.21386,7.4150583 -3.37863,16.5096163 -5.30869,24.6647793 -1.22773,8.190029 -6.96709,14.94931 -11.65683,21.172629 -7.155028,6.634137 0.57619,10.93454 8.32629,10.705293 13.95959,-0.505289 4.27818,14.789962 1.81353,25.561633 -1.28409,4.954216 -5.88532,22.321691 2.9573,21.558321 5.71968,-0.4974 10.20377,-3.46264 13.50649,-7.92148 4.65394,-5.878213 11.52176,-5.997333 17.40692,-7.320585"
         sodipodi:nodetypes="cccccccc" />
      <path
         id="path871"
         style="fill:none;stroke:#ffffff;stroke-width:0.409808;stroke-linecap:butt;stroke-linejoin:miter;stroke-miterlimit:4;stroke-dasharray:none;stroke-opacity:1"
         d="m 127.09065,37.618201 c 0.17431,8.747466 -15.12191,13.584775 -12.38917,21.479661 5.59702,-0.45518 10.16087,-5.444063 15.48178,-7.443863" />
      <path
         id="path875"
         style="fill:none;stroke:#ffffff;stroke-width:0.409808;stroke-linecap:butt;stroke-linejoin:miter;stroke-miterlimit:4;stroke-dasharray:none;stroke-opacity:1"
         d="m 134.22748,72.112963 c -3.38519,6.511327 -10.1085,10.558911 -12.60842,18.080018 -4.06912,14.478409 0.30245,16.249069 8.32631,5.947363 4.0739,-3.157806 8.09397,-6.576411 12.84632,-8.564212"
         sodipodi:nodetypes="cccc" />
      <path
         id="path877"
         style="fill:none;stroke:#ffffff;stroke-width:0.409808;stroke-linecap:butt;stroke-linejoin:miter;stroke-miterlimit:4;stroke-dasharray:none;stroke-opacity:1"
         d="m -2.4110788,-81.182846 c 3.8891505,10.89059 9.5365293,15.154509 20.5224798,13.120942 7.369271,-0.689019 19.482503,-9.840103 23.886827,7.065101 3.138982,14.739441 13.026288,25.514185 20.430854,23.67143 9.010701,-2.7763 12.079899,-22.046075 22.799191,-23.922897 9.367801,-1.33323 15.804697,7.249932 17.664527,15.391011 1.72166,7.574121 -1.31314,14.704889 6.56539,22.286294 5.27255,4.478459 15.01089,15.387775 5.97562,14.5617849"
         sodipodi:nodetypes="cccccccc" />
      <path
         id="path879"
         style="fill:none;stroke:#ffffff;stroke-width:0.409808;stroke-linecap:butt;stroke-linejoin:miter;stroke-miterlimit:4;stroke-dasharray:none;stroke-opacity:1"
         d="m 37.961011,-86.565779 c 11.237724,2.352193 11.449431,17.10806 15.980619,25.232547 7.174133,11.250709 5.865114,-10.631523 10.892365,-17.771121 0,0 4.6244,-5.556252 10.134756,-7.124992"
         sodipodi:nodetypes="cccc" />
      <path
         id="path881"
         style="fill:none;stroke:#ffffff;stroke-width:0.409808;stroke-linecap:butt;stroke-linejoin:miter;stroke-miterlimit:4;stroke-dasharray:none;stroke-opacity:1"
         d="m 95.491247,-85.89291 c 6.929633,3.216774 12.413373,21.791836 12.989913,33.219954 2.24837,25.278582 6.18497,23.515736 10.72867,24.646728 8.07544,0.73827 15.80513,-12.001755 19.68138,-11.438777"
         sodipodi:nodetypes="cccc" />
      <path
         id="path883"
         style="fill:none;stroke:#ffffff;stroke-width:0.409808;stroke-linecap:butt;stroke-linejoin:miter;stroke-miterlimit:4;stroke-dasharray:none;stroke-opacity:1"
         d="m 120.98036,8.1955447 c 2.59621,-5.5239731 9.55172,-3.8276998 14.21008,-5.6063007" />
    </g>
    <rect
       style="fill:#1c4ea9;fill-opacity:1;stroke-width:0.213934;stroke-miterlimit:10"
       id="rect234"
       width="160.42302"
       height="75.603378"
       x="328.74481"
       y="103.94954" />
    <g
       id="g4725"
       transform="translate(330.34534,102.54262)">
      <g
         id="g4743"
         transform="translate(-19.068137,-0.78362207)">
        <g
           aria-label="GISteiz"
           id="text4278"
           style="font-size:35.2778px;fill:#000000;fill-opacity:1;stroke-width:0.25;stroke-miterlimit:10">
          <path
             d="m 78.485164,41.928041 q 0,2.610557 0.388055,4.162781 0.388056,1.552223 1.305279,2.257779 0.952501,0.705556 2.610557,0.846667 V 46.7611 l -1.940279,-4.833059 h 8.290284 v 11.359452 q -1.12889,0.740834 -2.928058,1.164168 -1.799168,0.388055 -4.127503,0.388055 -3.386669,0 -5.856115,-1.27 -2.469446,-1.270001 -3.810002,-4.092225 -1.340557,-2.857502 -1.340557,-7.514172 0,-4.691948 1.44639,-7.584727 1.44639,-2.89278 4.056947,-4.233337 2.610558,-1.340556 6.067782,-1.340556 1.234723,0 2.57528,0.211667 1.340556,0.211667 2.751668,0.493889 l -0.635,5.785559 q -1.164168,-0.211666 -2.010835,-0.3175 -0.811389,-0.141111 -1.658057,-0.141111 -1.834445,0 -2.998613,0.599723 -1.128889,0.599722 -1.658056,2.151946 -0.529167,1.516945 -0.529167,4.339169 z"
             style="font-style:normal;font-variant:normal;font-weight:normal;font-stretch:normal;font-size:35.2778px;font-family:'Protest Strike';-inkscape-font-specification:'Protest Strike';fill:#000000;fill-opacity:1;stroke-width:0.25"
             id="path839" />
          <path
             d="m 91.255691,29.086921 h 6.879171 v 25.400017 h -6.879171 z"
             style="font-style:normal;font-variant:normal;font-weight:normal;font-stretch:normal;font-size:35.2778px;font-family:'Protest Strike';-inkscape-font-specification:'Protest Strike';fill:#000000;fill-opacity:1;stroke-width:0.25"
             id="path841" />
          <path
             d="m 107.65986,48.736657 q 1.34056,0 2.01084,-0.388056 0.67028,-0.388056 0.67028,-1.270001 0,-0.599722 -0.3175,-0.9525 -0.3175,-0.352778 -1.12889,-0.705557 l -3.73945,-1.728612 q -2.08139,-0.9525 -3.21028,-2.540001 -1.12889,-1.587502 -1.12889,-4.621392 0,-3.880559 2.01084,-5.78556 2.04611,-1.940279 6.73806,-1.975557 1.94027,0 3.52778,0.176389 1.5875,0.176389 2.54,0.388056 0.9525,0.176389 0.9525,0.176389 l -0.70556,5.679726 q 0,0 -0.88194,-0.105833 -0.84667,-0.105834 -2.11667,-0.176389 -1.27,-0.105834 -2.46945,-0.105834 -1.27,0 -1.94028,0.388056 -0.635,0.352778 -0.635,1.375834 0,0.564445 0.49389,0.952501 0.49389,0.352778 1.37584,0.740834 l 2.99861,1.305278 q 2.39889,1.058334 3.4925,2.645836 1.09361,1.552223 1.09361,4.445003 0,3.915836 -2.04611,6.032504 -2.04611,2.116668 -6.73806,2.151945 -2.32833,0 -4.33917,-0.3175 -2.01083,-0.282222 -3.56306,-0.670278 l 0.70556,-5.679726 q 0,0 0.84667,0.141111 0.88194,0.141111 2.32833,0.282223 1.44639,0.141111 3.175,0.141111 z"
             style="font-style:normal;font-variant:normal;font-weight:normal;font-stretch:normal;font-size:35.2778px;font-family:'Protest Strike';-inkscape-font-specification:'Protest Strike';fill:#000000;fill-opacity:1;stroke-width:0.25"
             id="path843" />
          <path
             d="m 127.16844,34.202203 h 3.84528 v 4.762503 h -3.84528 v 8.784172 q 0,0.987779 0.49389,1.44639 0.52916,0.458612 1.65805,0.458612 0.56445,0 0.98778,-0.03528 0.42334,-0.07056 0.70556,-0.141111 v 4.691947 q -0.84667,0.282223 -1.79917,0.458612 -0.91722,0.211666 -1.86972,0.211666 -3.24556,0 -4.90362,-1.375834 -1.62278,-1.411112 -1.62278,-5.009448 v -9.489728 h -2.64583 v -4.762503 h 2.64583 V 29.7572 h 6.35001 z"
             style="font-style:normal;font-variant:normal;font-weight:normal;font-stretch:normal;font-size:35.2778px;font-family:'Protest Strike';-inkscape-font-specification:'Protest Strike';fill:#000000;fill-opacity:1;stroke-width:0.25"
             id="path845" />
          <path
             d="m 141.73814,54.839716 q -2.08139,0 -3.81,-0.458611 -1.69334,-0.458611 -2.92806,-1.622779 -1.23473,-1.164167 -1.905,-3.21028 -0.67028,-2.046112 -0.67028,-5.221114 0,-5.150559 1.905,-7.761117 1.94028,-2.645835 6.20889,-2.645835 3.88056,0 5.60917,2.151946 1.76389,2.116668 1.76389,6.314727 0,0.987778 -0.0706,2.046112 -0.0706,1.023056 -0.24695,1.869724 h -8.43139 q 0.21167,2.151945 1.19944,2.892779 0.98778,0.705556 3.31612,0.705556 0.81139,0 1.65805,-0.141111 0.88195,-0.141111 1.69334,-0.3175 v 4.797781 q -1.23473,0.246944 -2.61056,0.423333 -1.34056,0.176389 -2.68111,0.176389 z m -0.9525,-16.263066 q -1.41111,0 -1.65806,3.810003 h 2.89278 q 0,-0.776112 -0.0706,-1.658057 -0.0353,-0.881945 -0.3175,-1.516946 -0.24694,-0.635 -0.84666,-0.635 z"
             style="font-style:normal;font-variant:normal;font-weight:normal;font-stretch:normal;font-size:35.2778px;font-family:'Protest Strike';-inkscape-font-specification:'Protest Strike';fill:#000000;fill-opacity:1;stroke-width:0.25"
             id="path847-0" />
          <path
             d="m 149.852,34.202203 h 6.35 v 20.284735 h -6.35 z m -0.17639,-6.350005 h 6.70278 v 4.797781 h -6.70278 z"
             style="font-style:normal;font-variant:normal;font-weight:normal;font-stretch:normal;font-size:35.2778px;font-family:'Protest Strike';-inkscape-font-specification:'Protest Strike';fill:#000000;fill-opacity:1;stroke-width:0.25"
             id="path849-8" />
          <path
             d="m 158.67139,50.60638 6.06778,-11.465285 h -5.82084 v -4.938892 h 13.44084 v 3.739447 l -6.13833,11.606396 h 6.45583 v 4.938892 h -14.00528 z"
             style="font-style:normal;font-variant:normal;font-weight:normal;font-stretch:normal;font-size:35.2778px;font-family:'Protest Strike';-inkscape-font-specification:'Protest Strike';fill:#000000;fill-opacity:1;stroke-width:0.25"
             id="path851-8" />
        </g>
        <g
           aria-label="development"
           id="text4278-9"
           style="font-size:17.6389px;letter-spacing:0.635px;fill:#ffffff;fill-opacity:1;stroke-width:0.25;stroke-miterlimit:10">
          <path
             d="m 74.251824,71.590772 q -0.97014,0 -1.60514,-0.405695 -0.617362,-0.423333 -0.987778,-1.146528 -0.352779,-0.723195 -0.511529,-1.622779 -0.141111,-0.917223 -0.141111,-1.92264 0,-2.89278 0.899584,-4.127503 0.917223,-1.234723 2.628196,-1.234723 0.776112,0 1.728613,0.3175 v -2.875141 l 3.175002,-0.47625 v 13.31737 h -2.698752 l -0.264584,-0.776112 q -0.388055,0.440973 -0.970139,0.705556 -0.582084,0.246945 -1.252362,0.246945 z m 1.040695,-2.469446 q 0.194028,0 0.440973,-0.07056 0.246944,-0.07055 0.529167,-0.229305 v -5.115282 q -0.388056,-0.105833 -0.723195,-0.105833 -0.81139,0 -1.040695,0.740834 -0.211667,0.740834 -0.211667,2.24014 0,1.393473 0.211667,1.975557 0.211666,0.564445 0.79375,0.564445 z"
             style="font-style:normal;font-variant:normal;font-weight:normal;font-stretch:normal;font-size:17.6389px;font-family:'Protest Strike';-inkscape-font-specification:'Protest Strike';fill:#ffffff;fill-opacity:1;stroke-width:0.25"
             id="path854" />
          <path
             d="m 85.787633,71.590772 q -1.040695,0 -1.905002,-0.229306 -0.846667,-0.229305 -1.464028,-0.811389 -0.617362,-0.582084 -0.952501,-1.60514 -0.335139,-1.023056 -0.335139,-2.610557 0,-2.57528 0.952501,-3.880559 0.970139,-1.322917 3.104446,-1.322917 1.940279,0 2.804585,1.075973 0.881945,1.058334 0.881945,3.157363 0,0.493889 -0.03528,1.023056 -0.03528,0.511528 -0.123473,0.934862 H 84.49999 q 0.105833,1.075973 0.599723,1.44639 0.493889,0.352778 1.658056,0.352778 0.405695,0 0.829029,-0.07056 0.440972,-0.07055 0.846667,-0.15875 v 2.398891 q -0.617362,0.123472 -1.305279,0.211666 -0.670278,0.08819 -1.340556,0.08819 z m -0.476251,-8.131533 q -0.705556,0 -0.829028,1.905001 h 1.44639 q 0,-0.388056 -0.03528,-0.829028 -0.01764,-0.440973 -0.15875,-0.758473 -0.123472,-0.3175 -0.423334,-0.3175 z"
             style="font-style:normal;font-variant:normal;font-weight:normal;font-stretch:normal;font-size:17.6389px;font-family:'Protest Strike';-inkscape-font-specification:'Protest Strike';fill:#ffffff;fill-opacity:1;stroke-width:0.25"
             id="path856" />
          <path
             d="M 91.961207,71.414383 89.597594,61.272015 h 3.263197 l 1.023056,6.720421 h 0.03528 l 0.987778,-6.720421 h 3.175002 l -2.39889,10.142368 z"
             style="font-style:normal;font-variant:normal;font-weight:normal;font-stretch:normal;font-size:17.6389px;font-family:'Protest Strike';-inkscape-font-specification:'Protest Strike';fill:#ffffff;fill-opacity:1;stroke-width:0.25"
             id="path858" />
          <path
             d="m 103.54993,71.590772 q -1.0407,0 -1.905,-0.229306 -0.84667,-0.229305 -1.46403,-0.811389 -0.617364,-0.582084 -0.952503,-1.60514 -0.335139,-1.023056 -0.335139,-2.610557 0,-2.57528 0.9525,-3.880559 0.970142,-1.322917 3.104442,-1.322917 1.94028,0 2.80459,1.075973 0.88195,1.058334 0.88195,3.157363 0,0.493889 -0.0353,1.023056 -0.0353,0.511528 -0.12347,0.934862 h -4.2157 q 0.10583,1.075973 0.59972,1.44639 0.49389,0.352778 1.65806,0.352778 0.40569,0 0.82903,-0.07056 0.44097,-0.07055 0.84666,-0.15875 v 2.398891 q -0.61736,0.123472 -1.30528,0.211666 -0.67027,0.08819 -1.34055,0.08819 z m -0.47625,-8.131533 q -0.70556,0 -0.82903,1.905001 h 1.44639 q 0,-0.388056 -0.0353,-0.829028 -0.0176,-0.440973 -0.15875,-0.758473 -0.12347,-0.3175 -0.42333,-0.3175 z"
             style="font-style:normal;font-variant:normal;font-weight:normal;font-stretch:normal;font-size:17.6389px;font-family:'Protest Strike';-inkscape-font-specification:'Protest Strike';fill:#ffffff;fill-opacity:1;stroke-width:0.25"
             id="path860" />
          <path
             d="m 111.41686,71.414383 h -3.175 V 58.520346 l 3.175,-0.423333 z"
             style="font-style:normal;font-variant:normal;font-weight:normal;font-stretch:normal;font-size:17.6389px;font-family:'Protest Strike';-inkscape-font-specification:'Protest Strike';fill:#ffffff;fill-opacity:1;stroke-width:0.25"
             id="path862" />
          <path
             d="m 117.46697,71.590772 q -1.56986,0 -2.54,-0.529167 -0.9525,-0.529167 -1.39347,-1.675696 -0.42334,-1.164167 -0.42334,-3.033891 0,-1.869723 0.42334,-3.016252 0.44097,-1.146528 1.39347,-1.675695 0.97014,-0.529167 2.54,-0.529167 1.5875,0 2.54,0.529167 0.9525,0.529167 1.37584,1.675695 0.44097,1.146529 0.44097,3.016252 0,1.869724 -0.44097,3.033891 -0.42334,1.146529 -1.37584,1.675696 -0.9525,0.529167 -2.54,0.529167 z m -0.0176,-2.487085 q 0.59973,0 0.84667,-0.635 0.24694,-0.65264 0.24694,-2.09903 0,-1.464028 -0.24694,-2.099029 -0.24694,-0.652639 -0.84667,-0.652639 -0.58208,0 -0.82903,0.652639 -0.2293,0.635001 -0.2293,2.099029 0,1.44639 0.2293,2.09903 0.24695,0.635 0.82903,0.635 z"
             style="font-style:normal;font-variant:normal;font-weight:normal;font-stretch:normal;font-size:17.6389px;font-family:'Protest Strike';-inkscape-font-specification:'Protest Strike';fill:#ffffff;fill-opacity:1;stroke-width:0.25"
             id="path864" />
          <path
             d="M 123.51709,74.060218 V 61.272015 h 2.69875 l 0.26458,0.811389 q 0.4057,-0.458611 0.97014,-0.705556 0.58209,-0.246944 1.25236,-0.246944 0.97014,0 1.5875,0.423333 0.63501,0.405695 0.98778,1.12889 0.37042,0.723195 0.51153,1.640418 0.15875,0.899584 0.15875,1.905001 0,2.89278 -0.89958,4.127503 -0.89959,1.234723 -2.6282,1.234723 -0.77611,0 -1.72861,-0.3175 v 2.328335 z m 3.89819,-4.938892 q 0.81139,0 1.02306,-0.740834 0.22931,-0.740834 0.22931,-2.24014 0,-1.393474 -0.21167,-1.957918 -0.21167,-0.582084 -0.79375,-0.582084 -0.17639,0 -0.42333,0.07056 -0.24695,0.07055 -0.54681,0.229305 v 5.115281 q 0.40569,0.105834 0.72319,0.105834 z"
             style="font-style:normal;font-variant:normal;font-weight:normal;font-stretch:normal;font-size:17.6389px;font-family:'Protest Strike';-inkscape-font-specification:'Protest Strike';fill:#ffffff;fill-opacity:1;stroke-width:0.25"
             id="path866" />
          <path
             d="m 138.19262,64.676323 q 0,-1.075973 -0.81139,-1.075973 -0.3175,0 -0.56444,0.194028 v 7.620005 h -3.175 V 61.272015 h 2.69875 l 0.2293,0.687917 q 0.98778,-0.829028 2.15195,-0.829028 0.67028,0 1.21708,0.264583 0.54681,0.264584 0.89959,0.793751 0.56444,-0.546806 1.1818,-0.793751 0.635,-0.264583 1.27,-0.264583 1.14653,0 1.88737,0.758473 0.74083,0.758472 0.74083,2.275418 v 7.249588 h -3.175 v -6.73806 q 0,-1.075973 -0.81139,-1.075973 -0.35278,0 -0.58208,0.176389 0,0.08819 0,0.194028 0.0176,0.105833 0.0176,0.194028 v 7.249588 h -3.175 z"
             style="font-style:normal;font-variant:normal;font-weight:normal;font-stretch:normal;font-size:17.6389px;font-family:'Protest Strike';-inkscape-font-specification:'Protest Strike';fill:#ffffff;fill-opacity:1;stroke-width:0.25"
             id="path868" />
          <path
             d="m 152.18027,71.590772 q -1.0407,0 -1.905,-0.229306 -0.84667,-0.229305 -1.46403,-0.811389 -0.61736,-0.582084 -0.9525,-1.60514 -0.33514,-1.023056 -0.33514,-2.610557 0,-2.57528 0.9525,-3.880559 0.97014,-1.322917 3.10445,-1.322917 1.94028,0 2.80458,1.075973 0.88195,1.058334 0.88195,3.157363 0,0.493889 -0.0353,1.023056 -0.0353,0.511528 -0.12347,0.934862 h -4.2157 q 0.10583,1.075973 0.59972,1.44639 0.49389,0.352778 1.65806,0.352778 0.40569,0 0.82903,-0.07056 0.44097,-0.07055 0.84667,-0.15875 v 2.398891 q -0.61737,0.123472 -1.30528,0.211666 -0.67028,0.08819 -1.34056,0.08819 z m -0.47625,-8.131533 q -0.70556,0 -0.82903,1.905001 h 1.44639 q 0,-0.388056 -0.0353,-0.829028 -0.0176,-0.440973 -0.15875,-0.758473 -0.12347,-0.3175 -0.42333,-0.3175 z"
             style="font-style:normal;font-variant:normal;font-weight:normal;font-stretch:normal;font-size:17.6389px;font-family:'Protest Strike';-inkscape-font-specification:'Protest Strike';fill:#ffffff;fill-opacity:1;stroke-width:0.25"
             id="path870" />
          <path
             d="m 159.80025,61.959932 q 1.0407,-0.829028 2.25778,-0.829028 1.21709,0 2.01084,0.758473 0.81139,0.758472 0.81139,2.275418 v 7.249588 h -3.175 v -6.73806 q 0,-1.075973 -0.97014,-1.075973 -0.38806,0 -0.68792,0.194028 v 7.620005 h -3.175 V 61.272015 h 2.69875 z"
             style="font-style:normal;font-variant:normal;font-weight:normal;font-stretch:normal;font-size:17.6389px;font-family:'Protest Strike';-inkscape-font-specification:'Protest Strike';fill:#ffffff;fill-opacity:1;stroke-width:0.25"
             id="path872" />
          <path
             d="m 170.80692,61.272015 h 1.92264 v 2.381252 h -1.92264 v 4.392086 q 0,0.493889 0.24694,0.723195 0.26458,0.229306 0.82903,0.229306 0.28222,0 0.49389,-0.01764 0.21166,-0.03528 0.35278,-0.07056 v 2.345974 q -0.42334,0.141111 -0.89959,0.229306 -0.45861,0.105833 -0.93486,0.105833 -1.62278,0 -2.45181,-0.687917 -0.81139,-0.705556 -0.81139,-2.504724 V 63.653267 H 166.309 v -2.381252 h 1.32291 v -2.222501 h 3.17501 z"
             style="font-style:normal;font-variant:normal;font-weight:normal;font-stretch:normal;font-size:17.6389px;font-family:'Protest Strike';-inkscape-font-specification:'Protest Strike';fill:#ffffff;fill-opacity:1;stroke-width:0.25"
             id="path874" />
        </g>
      </g>
    </g>
  </g>
</svg>
